<svg width="26" height="25" viewBox="0 0 26 25" fill="none" xmlns="http://www.w3.org/2000/svg">
<path opacity="0.15" d="M19.9453 21.875C19.0568 21.875 18.1883 21.6115 17.4496 21.1179C16.7109 20.6243 16.1351 19.9227 15.7951 19.1019C15.4551 18.2811 15.3661 17.3778 15.5394 16.5064C15.7128 15.635 16.1406 14.8346 16.7689 14.2064C17.3971 13.5781 18.1975 13.1503 19.0689 12.9769C19.9403 12.8036 20.8436 12.8926 21.6644 13.2326C22.4852 13.5726 23.1868 14.1484 23.6804 14.8871C24.174 15.6258 24.4375 16.4943 24.4375 17.3828C24.4362 18.5738 23.9625 19.7157 23.1203 20.5578C22.2782 21.4 21.1363 21.8737 19.9453 21.875V21.875ZM19.9453 14.4531C19.3659 14.4531 18.7995 14.6249 18.3177 14.9469C17.8359 15.2688 17.4604 15.7263 17.2386 16.2617C17.0169 16.797 16.9589 17.3861 17.0719 17.9544C17.185 18.5227 17.464 19.0447 17.8737 19.4544C18.2834 19.8641 18.8055 20.1432 19.3738 20.2562C19.9421 20.3692 20.5311 20.3112 21.0665 20.0895C21.6018 19.8678 22.0593 19.4922 22.3813 19.0105C22.7032 18.5287 22.875 17.9623 22.875 17.3828C22.8741 16.6061 22.5651 15.8614 22.0159 15.3122C21.4667 14.763 20.722 14.454 19.9453 14.4531V14.4531Z" fill="#1D2E5B"/>
<path opacity="0.15" d="M7.05469 21.875C6.16622 21.875 5.2977 21.6115 4.55896 21.1179C3.82023 20.6243 3.24445 19.9227 2.90445 19.1019C2.56445 18.2811 2.47549 17.3778 2.64882 16.5064C2.82215 15.635 3.24999 14.8346 3.87823 14.2064C4.50648 13.5781 5.30691 13.1503 6.17831 12.9769C7.04971 12.8036 7.95294 12.8926 8.77378 13.2326C9.59462 13.5726 10.2962 14.1484 10.7898 14.8871C11.2834 15.6258 11.5469 16.4943 11.5469 17.3828C11.5456 18.5738 11.0719 19.7157 10.2297 20.5578C9.38755 21.4 8.24569 21.8737 7.05469 21.875V21.875ZM7.05469 14.4531C6.47525 14.4531 5.90883 14.6249 5.42704 14.9469C4.94526 15.2688 4.56975 15.7263 4.34801 16.2617C4.12627 16.797 4.06825 17.3861 4.1813 17.9544C4.29434 18.5227 4.57336 19.0447 4.98309 19.4544C5.39281 19.8641 5.91483 20.1432 6.48314 20.2562C7.05144 20.3692 7.6405 20.3112 8.17583 20.0895C8.71116 19.8678 9.16872 19.4922 9.49064 19.0105C9.81255 18.5287 9.98438 17.9623 9.98438 17.3828C9.98347 16.6061 9.67452 15.8614 9.12529 15.3122C8.57607 14.763 7.83141 14.454 7.05469 14.4531V14.4531Z" fill="#1D2E5B"/>
<path opacity="0.15" d="M16.625 6.25005C16.8308 6.25076 17.0347 6.21067 17.2249 6.1321C17.4151 6.05352 17.5879 5.93802 17.7332 5.79227C17.8785 5.64651 17.9934 5.47341 18.0714 5.28295C18.1494 5.09249 18.1889 4.88847 18.1875 4.68267C18.1898 4.4779 18.1512 4.27473 18.0741 4.08504C17.9969 3.89535 17.8827 3.72295 17.7381 3.57792C17.5935 3.43289 17.4215 3.31814 17.232 3.24038C17.0426 3.16262 16.8395 3.12341 16.6348 3.12505C16.4296 3.12441 16.2263 3.16419 16.0365 3.24212C15.8466 3.32005 15.674 3.4346 15.5285 3.57924C15.3829 3.72388 15.2673 3.89577 15.1882 4.0851C15.1091 4.27442 15.068 4.47748 15.0674 4.68267C15.0667 4.88786 15.1065 5.09116 15.1845 5.28098C15.2624 5.4708 15.3769 5.64341 15.5216 5.78895C15.6662 5.9345 15.8381 6.05013 16.0274 6.12924C16.2168 6.20836 16.4198 6.24941 16.625 6.25005V6.25005Z" fill="#1D2E5B"/>
<path opacity="0.15" d="M18.9468 9.37529H16.8101C16.775 9.3753 16.7406 9.36587 16.7104 9.348C16.6803 9.33013 16.6555 9.30448 16.6387 9.27373L15.0889 6.43339C14.9797 6.22232 14.8223 6.03991 14.6295 5.90096C14.4367 5.762 14.2139 5.67039 13.9791 5.63354C13.7444 5.59669 13.5042 5.61564 13.2781 5.68886C13.052 5.76208 12.8463 5.8875 12.6777 6.05498L9.2666 9.49248C8.98003 9.78497 8.81736 10.1768 8.8125 10.5862C8.8125 11.4358 9.42773 11.7386 9.71582 11.9095C11.1074 12.7112 12.0874 13.2977 12.625 13.6233C12.6536 13.6407 12.6772 13.6652 12.6936 13.6943C12.71 13.7235 12.7187 13.7564 12.7188 13.7898V17.1648C12.7188 17.5853 13.042 17.9461 13.4624 17.9671C13.568 17.9722 13.6734 17.9558 13.7725 17.9189C13.8715 17.8821 13.962 17.8255 14.0386 17.7527C14.1151 17.6798 14.1761 17.5922 14.2178 17.4951C14.2595 17.398 14.2811 17.2935 14.2813 17.1878V12.9886C14.2813 12.8645 14.2519 12.7423 14.1953 12.6319C14.1388 12.5215 14.0568 12.4262 13.9561 12.3538L12.1494 11.0545C12.1267 11.0383 12.1078 11.0174 12.0939 10.9932C12.0799 10.9691 12.0713 10.9422 12.0687 10.9144C12.066 10.8867 12.0693 10.8587 12.0783 10.8323C12.0874 10.8059 12.1019 10.7818 12.1211 10.7615L14.1719 8.57451C14.1929 8.55201 14.219 8.5348 14.2479 8.52428C14.2768 8.51377 14.3079 8.51025 14.3384 8.51401C14.369 8.51777 14.3982 8.52871 14.4238 8.54593C14.4493 8.56314 14.4704 8.58615 14.4854 8.61308L15.5508 10.5359C15.6185 10.6578 15.7176 10.7594 15.8378 10.83C15.958 10.9007 16.0949 10.9379 16.2344 10.9378H18.9688C19.0746 10.9379 19.1793 10.9165 19.2767 10.8749C19.374 10.8333 19.4618 10.7724 19.5349 10.6958C19.608 10.6193 19.6647 10.5286 19.7017 10.4295C19.7387 10.3303 19.7551 10.2247 19.75 10.1189C19.7295 9.69853 19.3672 9.37529 18.9468 9.37529Z" fill="#1D2E5B"/>
</svg>
