<svg width="26" height="25" viewBox="0 0 26 25" fill="none" xmlns="http://www.w3.org/2000/svg">
<g clip-path="url(#clip0_29876_1667)">
<path opacity="0.15" d="M8.50099 15.5714C8.50099 15.1771 8.35457 14.8404 8.06172 14.5614C7.76888 14.2824 7.41551 14.1429 7.00162 14.1429C6.58773 14.1429 6.23436 14.2824 5.94151 14.5614C5.64867 14.8404 5.50224 15.1771 5.50224 15.5714C5.50224 15.9658 5.64867 16.3025 5.94151 16.5815C6.23436 16.8605 6.58773 17 7.00162 17C7.41551 17 7.76888 16.8605 8.06172 16.5815C8.35457 16.3025 8.50099 15.9658 8.50099 15.5714ZM20.496 15.5714C20.496 15.1771 20.3496 14.8404 20.0567 14.5614C19.7639 14.2824 19.4105 14.1429 18.9966 14.1429C18.5827 14.1429 18.2294 14.2824 17.9365 14.5614C17.6437 14.8404 17.4972 15.1771 17.4972 15.5714C17.4972 15.9658 17.6437 16.3025 17.9365 16.5815C18.2294 16.8605 18.5827 17 18.9966 17C19.4105 17 19.7639 16.8605 20.0567 16.5815C20.3496 16.3025 20.496 15.9658 20.496 15.5714ZM19.9572 11.1518L19.1138 6.86607C19.0747 6.69494 18.9869 6.55543 18.8502 6.44754C18.7135 6.33966 18.5554 6.28571 18.3758 6.28571H7.62245C7.44284 6.28571 7.2847 6.33966 7.14804 6.44754C7.01138 6.55543 6.92353 6.69494 6.88448 6.86607L6.04108 11.1518C6.00204 11.375 6.0567 11.5722 6.20508 11.7433C6.35345 11.9144 6.54478 12 6.77906 12H19.2192C19.4535 12 19.6448 11.9144 19.7932 11.7433C19.9415 11.5722 19.9962 11.375 19.9572 11.1518ZM17.3098 4.32143C17.3098 4.17262 17.2552 4.04613 17.1458 3.94196C17.0365 3.8378 16.9037 3.78571 16.7476 3.78571H9.25068C9.0945 3.78571 8.96174 3.8378 8.85241 3.94196C8.74308 4.04613 8.68842 4.17262 8.68842 4.32143C8.68842 4.47024 8.74308 4.59673 8.85241 4.70089C8.96174 4.80506 9.0945 4.85714 9.25068 4.85714H16.7476C16.9037 4.85714 17.0365 4.80506 17.1458 4.70089C17.2552 4.59673 17.3098 4.47024 17.3098 4.32143ZM21.9954 12.4129V19.1429H20.496V20.5714C20.496 20.9658 20.3496 21.3025 20.0567 21.5815C19.7639 21.8605 19.4105 22 18.9966 22C18.5827 22 18.2294 21.8605 17.9365 21.5815C17.6437 21.3025 17.4972 20.9658 17.4972 20.5714V19.1429H8.50099V20.5714C8.50099 20.9658 8.35457 21.3025 8.06172 21.5815C7.76888 21.8605 7.41551 22 7.00162 22C6.58773 22 6.23436 21.8605 5.94151 21.5815C5.64867 21.3025 5.50224 20.9658 5.50224 20.5714V19.1429H4.00287V12.4129C4.00287 11.5796 4.10048 10.75 4.29572 9.92411L5.50224 4.85714C5.57253 4.27679 5.95323 3.76711 6.64435 3.32812C7.33546 2.88914 8.23353 2.55804 9.33854 2.33482C10.4435 2.11161 11.6637 2 12.9991 2C14.3345 2 15.5547 2.11161 16.6597 2.33482C17.7647 2.55804 18.6628 2.88914 19.3539 3.32812C20.045 3.76711 20.4257 4.27679 20.496 4.85714L21.726 9.92411C21.9056 10.683 21.9954 11.5126 21.9954 12.4129Z" fill="#1D2E5B"/>
</g>
<defs>
<clipPath id="clip0_29876_1667">
<rect width="18" height="20" fill="white" transform="translate(4 2)"/>
</clipPath>
</defs>
</svg>
