<svg width="133" height="25" viewBox="0 0 133 25" fill="currentColor" xmlns="http://www.w3.org/2000/svg">
<g filter="url(#filter0_d_13528_1395)">
<path d="M129.541 9.68722C130.514 9.08303 131 8.15158 131 6.89286C131 5.24813 130.3 3.95584 128.899 3.016C127.538 2.05937 125.933 1.58105 124.086 1.58105C122.277 1.58105 120.623 2.10133 119.126 3.14187C117.648 4.16563 116.909 5.53344 116.909 7.2453C116.909 7.88305 117.113 8.41172 117.521 8.83129C117.93 9.23408 118.513 9.43548 119.272 9.43548C120.011 9.43548 120.575 9.23408 120.964 8.83129C121.372 8.41172 121.577 7.88305 121.577 7.2453C121.538 6.75859 121.703 6.2635 122.073 5.76001C122.442 5.23974 123.113 4.9796 124.086 4.9796C124.902 4.99638 125.486 5.19778 125.836 5.58379C126.206 5.9698 126.371 6.3558 126.332 6.74181C126.332 7.01034 126.235 7.27887 126.04 7.54739C125.846 7.81592 125.642 8.02571 125.428 8.17675C125.233 8.3278 124.912 8.54598 124.465 8.83129C124.017 9.1166 123.706 9.318 123.531 9.43548C122.52 10.1571 122.014 11.1138 122.014 12.3054C122.014 12.8928 122.228 13.3879 122.656 13.7907C123.103 14.1767 123.697 14.3697 124.436 14.3697C125.175 14.3697 125.758 14.1767 126.186 13.7907C126.633 13.3879 126.857 12.8928 126.857 12.3054C126.857 12.0536 126.906 11.8187 127.003 11.6005C127.1 11.3823 127.256 11.1809 127.47 10.9963C127.703 10.8117 127.898 10.6606 128.053 10.5432C128.228 10.4257 128.481 10.2746 128.812 10.09C129.162 9.9054 129.405 9.77114 129.541 9.68722Z" />
<path d="M104.612 14.9876L109.779 8.7373C110.309 7.9828 111.028 7.56268 111.937 7.47695C112.845 7.37406 113.64 7.58841 114.322 8.11998C115.003 8.65156 115.325 9.36319 115.287 10.2549V19.206C115.287 19.7718 115.06 20.252 114.605 20.6464C114.17 21.0236 113.64 21.2122 113.016 21.2122C112.391 21.2122 111.852 21.0236 111.397 20.6464C110.962 20.252 110.744 19.7718 110.744 19.206V13.6501L105.577 19.9004C105.047 20.6549 104.328 21.075 103.42 21.1608C102.511 21.2637 101.716 21.0493 101.035 20.5177C100.353 19.9862 100.032 19.2745 100.069 18.3829V9.4575C100.069 8.89163 100.287 8.41149 100.722 8.0171C101.177 7.6227 101.716 7.4255 102.341 7.4255C102.965 7.4255 103.495 7.6227 103.931 8.0171C104.385 8.41149 104.612 8.89163 104.612 9.4575V14.9876Z" />
<path fill-rule="evenodd" clip-rule="evenodd" d="M81.3812 19.1182V9.40729C81.3812 8.84889 81.1424 8.36902 80.6648 7.96767C80.2063 7.54887 79.6618 7.33948 79.0313 7.33948C78.42 7.33948 77.8851 7.54887 77.4266 7.96767C76.9681 8.36902 76.7388 8.84889 76.7388 9.40729V9.17172C76.5095 8.64822 76.051 8.20325 75.3633 7.8368C74.6755 7.4529 73.8922 7.26095 73.0134 7.26095C71.294 7.26095 69.7083 7.88042 68.2564 9.11937C66.8426 10.3583 66.1358 12.0597 66.1358 14.2235C66.1358 16.4396 66.8331 18.1584 68.2277 19.3799C69.6223 20.6014 71.2176 21.2121 73.0134 21.2121C73.8922 21.2121 74.666 21.0551 75.3346 20.741C76.0033 20.4094 76.4904 20.0168 76.7961 19.5631C76.9107 20.0343 77.1782 20.4269 77.5985 20.741C78.0188 21.0376 78.4964 21.186 79.0313 21.186C79.6618 21.186 80.2063 20.9853 80.6648 20.5839C81.1424 20.1826 81.3812 19.694 81.3812 19.1182ZM74.052 17.3337C75.6182 17.3337 76.8878 15.9902 76.8878 14.333C76.8878 12.6757 75.6182 11.3322 74.052 11.3322C72.4859 11.3322 71.2163 12.6757 71.2163 14.333C71.2163 15.9902 72.4859 17.3337 74.052 17.3337Z" />
<path d="M60.0968 12.3705V9.56375C60.0968 8.99348 60.3333 8.50962 60.8063 8.11216C61.2794 7.69742 61.8312 7.49005 62.4619 7.49005C63.0927 7.49005 63.6445 7.69742 64.1175 8.11216C64.5906 8.50962 64.8271 8.99348 64.8271 9.56375V19.1806C64.8271 19.7508 64.5906 20.2347 64.1175 20.6321C63.6642 21.0296 63.1124 21.2283 62.4619 21.2283C61.8115 21.2283 61.2498 21.0296 60.7768 20.6321C60.3235 20.2347 60.0968 19.7508 60.0968 19.1806V16.3324H54.9822V19.1806C54.9822 19.7508 54.7456 20.2347 54.2726 20.6321C53.8193 21.0296 53.2674 21.2283 52.617 21.2283C51.9666 21.2283 51.4049 21.0296 50.9318 20.6321C50.4785 20.2347 50.2519 19.7508 50.2519 19.1806V9.56375C50.2519 8.99348 50.4884 8.50962 50.9614 8.11216C51.4344 7.69742 51.9863 7.49005 52.617 7.49005C53.2477 7.49005 53.7996 7.69742 54.2726 8.11216C54.7456 8.50962 54.9822 8.99348 54.9822 9.56375V12.3705H60.0968Z" />
<path d="M47.8786 7.49005C48.3419 7.49005 48.7391 7.66187 49.07 8.00552C49.401 8.34916 49.5664 9.14123 49.5664 9.62234C49.5664 10.1034 49.401 10.6009 49.07 10.9445C48.7391 11.2882 48.3419 11.4091 47.8786 11.4091H43.9147V19.23C43.9147 20.7101 42.5835 21.2284 41.2486 21.2284C40.0102 21.2284 38.8276 20.5726 38.8276 19.244L38.8686 7.49005C38.8686 7.49005 45.775 7.49005 47.8786 7.49005Z" />
<path d="M19.5982 1.58105V19.0431C19.5982 19.6189 19.2784 20.1074 18.835 20.5087C18.4101 20.9101 17.7422 21.1108 17.1326 21.1108C16.5229 21.1108 15.6416 20.9101 15.1982 20.5087C14.7733 20.1074 14.5608 19.6188 14.5608 19.0429V5.52249H7.42855V19.0429C7.42855 19.6188 7.20685 20.1074 6.76347 20.5087C6.33856 20.9101 5.47342 21.1108 4.86377 21.1108C4.25411 21.1108 3.45502 20.9101 3.01164 20.5087C2.58672 20.1074 2.37427 19.6188 2.37427 19.0429V1.58105C8.08286 1.58105 19.5982 1.58105 19.5982 1.58105Z" />
<path d="M35.3848 19.0868C33.9424 20.4107 32.0121 21.0727 29.5939 21.0727C27.1757 21.0727 25.256 20.4107 23.8348 19.0868C22.3712 17.7432 21.6394 16.0636 21.6394 14.0481C21.6394 12.0129 22.3712 10.3333 23.8348 9.0094C25.256 7.6855 27.1757 7.02355 29.5939 7.02355C32.0121 7.02355 33.9424 7.6855 35.3848 9.0094C36.8272 10.3531 37.5484 12.0326 37.5484 14.0481C37.5484 16.0636 36.8272 17.7432 35.3848 19.0868ZM31.6303 11.9734C31.2272 11.5584 30.7287 11.3114 30.1348 11.2324C29.5621 11.1336 29.0106 11.183 28.4803 11.3806C27.9712 11.5782 27.5363 11.9141 27.1757 12.3883C26.8363 12.8625 26.6878 13.4158 26.7303 14.0481C26.7303 14.878 26.9954 15.5696 27.5257 16.1229C28.0772 16.6564 28.7666 16.9232 29.5939 16.9232C30.4424 16.9232 31.1318 16.6663 31.6621 16.1525C32.1924 15.619 32.4575 14.9175 32.4575 14.0481C32.4575 13.2182 32.1818 12.5266 31.6303 11.9734Z" />
<path d="M88.154 7.4255C90.8659 7.4255 98.0921 7.46488 98.0921 7.46488C98.0921 7.46488 98.0976 16.0979 98.0976 19.1148C98.0976 19.6943 97.8537 20.1938 97.3659 20.6135C96.9003 21.0131 96.4791 21.2129 95.7696 21.2129C95.0602 21.2129 94.6986 21.2654 94.2109 20.8658C93.7453 20.4462 93.3169 19.6943 93.3169 19.1148V11.3219H90.0257C90.0257 16.9082 90.0258 18.1355 87.9212 20.1339C87.1453 20.8532 86.1476 21.2129 84.9282 21.2129C84.1966 21.2129 83.7668 21.0415 83.3012 20.6418C82.8356 20.2222 82.4742 19.5526 82.4742 18.9331C82.4742 17.5997 82.7605 17.0691 83.492 16.1992C85.5912 16.1992 85.5003 15.7021 85.3686 11.9214V9.52359C85.3908 8.94412 85.5003 7.4255 85.5003 7.4255C85.5003 7.4255 87.5111 7.4255 88.154 7.4255Z" />
<path d="M127.194 18.2749C127.194 19.8971 125.788 21.2121 124.053 21.2121C122.318 21.2121 120.912 19.8971 120.912 18.2749C120.912 16.6527 122.318 15.3377 124.053 15.3377C125.788 15.3377 127.194 16.6527 127.194 18.2749Z" />
</g>
<defs>
<filter id="filter0_d_13528_1395" x="0.374268" y="0.581055" width="132.626" height="23.6475" filterUnits="userSpaceOnUse" color-interpolation-filters="sRGB">
<feFlood flood-opacity="0" result="BackgroundImageFix"/>
<feColorMatrix in="SourceAlpha" type="matrix" values="0 0 0 0 0 0 0 0 0 0 0 0 0 0 0 0 0 0 127 0" result="hardAlpha"/>
<feOffset dy="1"/>
<feGaussianBlur stdDeviation="1"/>
<feColorMatrix type="matrix" values="0 0 0 0 0 0 0 0 0 0 0 0 0 0 0 0 0 0 0.3 0"/>
<feBlend mode="normal" in2="BackgroundImageFix" result="effect1_dropShadow_13528_1395"/>
<feBlend mode="normal" in="SourceGraphic" in2="effect1_dropShadow_13528_1395" result="shape"/>
</filter>
</defs>
</svg>
