<svg width="25" height="25" viewBox="0 0 25 25" fill="none" xmlns="http://www.w3.org/2000/svg">
<g clip-path="url(#clip0_29876_1668)">
<path d="M18.5347 2.1803C17.7301 2.36073 16.9218 2.542 16.6212 3.03873L14.2941 7.41228L1.79919 10.2144L1.29295 11.6118L10.8544 12.4647L9.23212 16.2509L5.60602 17.0641L4.69562 18.5521L7.31158 18.8201L7.60988 20.0371C7.74352 20.4685 8.21259 20.7565 8.61297 20.6667L9.82168 20.3956L11.2228 22.6492L12.1332 21.1611L11.2383 17.5101L13.8637 14.3536L18.8731 22.6468L19.8832 21.5656L16.8005 8.9887L19.6314 4.93144C19.9358 4.43387 19.7373 3.6238 19.5378 2.80994C19.439 2.40681 18.9351 2.09051 18.5347 2.1803Z" fill="#101D41"/>
</g>
<defs>
<clipPath id="clip0_29876_1668">
<rect width="23" height="22" fill="white" transform="translate(0 1)"/>
</clipPath>
</defs>
</svg>
