<svg width="23" height="25" viewBox="0 0 23 25" fill="none" xmlns="http://www.w3.org/2000/svg">
<path opacity="0.15" d="M16.4545 7C17.4587 7 18.2727 6.10457 18.2727 5C18.2727 3.89543 17.4587 3 16.4545 3C15.4504 3 14.6364 3.89543 14.6364 5C14.6364 6.10457 15.4504 7 16.4545 7Z" fill="#1D2E5B"/>
<path opacity="0.15" d="M15.3428 11.969C15.5514 12.311 15.8508 12.5742 16.2001 12.7227C16.5495 12.8712 16.9319 12.8978 17.2955 12.799L20.31 11.97L19.8709 10.03L16.8564 10.859L15.6027 8.79197C15.3349 8.35053 14.9192 8.04354 14.4464 7.93797L10.95 7.16797C10.5589 7.08162 10.1528 7.13933 9.79441 7.33217C9.43606 7.52502 9.14539 7.84229 8.9673 8.23497L7.46002 11.551L9.08639 12.446L10.5937 9.12897L12.3818 9.52297L7.7582 18H3.72729V20H7.7582C8.39275 20 8.99002 19.628 9.3173 19.029L11.0609 15.833L15.76 16.867L17.4109 22.316L19.1346 21.683L17.4846 16.235C17.3827 15.9005 17.2026 15.6014 16.9622 15.3679C16.7219 15.1345 16.4298 14.9748 16.1155 14.905L13.3527 14.298L14.9637 11.344L15.3428 11.969Z" fill="#1D2E5B"/>
</svg>
