<svg width="29" height="29" viewBox="0 0 29 29" fill="currentColor" xmlns="http://www.w3.org/2000/svg">
<path d="M24.4731 24.0259V20.5393C24.4731 19.5631 24.3296 18.5868 23.7555 17.6105C23.1815 16.6343 22.464 15.7975 21.4595 15.2396C20.455 14.5423 18.3024 14.4028 17.2979 14.4028L15.0018 16.7737L15.8628 18.5868V22.7708L14.4278 24.3049L12.9928 22.7708V18.5868L13.9973 16.7737L11.5577 14.4028C10.4097 14.4028 8.25716 14.5423 7.25264 15.2396C6.24811 15.7975 5.6741 16.6343 5.10009 17.6105C4.52607 18.5868 4.38257 19.4236 4.38257 20.5393V24.0259C4.38257 24.0259 8.11366 25.5601 14.4278 25.5601C20.742 25.5601 24.4731 24.0259 24.4731 24.0259Z" />
<path d="M14.4278 3.38525C11.7012 3.38525 10.1227 5.89563 10.5532 8.68494C10.9837 11.4742 12.4187 13.4268 14.4278 13.4268C16.4368 13.4268 17.8719 11.4742 18.3024 8.68494C18.7329 5.75617 17.1544 3.38525 14.4278 3.38525Z" />
</svg>
