<svg width="188" height="50" viewBox="0 0 188 50" fill="none" xmlns="http://www.w3.org/2000/svg">
<path d="M93.9956 12.6435L53.899 50L39.2637 2.10889L93.9956 12.6435Z" fill="#4D99D6"/>
<ellipse cx="94.7273" cy="33.8974" rx="4.353" ry="4.25194" fill="#88BFEB"/>
<ellipse cx="111.867" cy="21.5315" rx="15.1738" ry="14.8215" fill="#EB9898"/>
<rect width="56.1361" height="28.0819" transform="matrix(0.940449 -0.339936 0.354277 0.93514 102.938 23.3032)" fill="#72A73E"/>
<ellipse cx="110.041" cy="40.6437" rx="2.55056" ry="2.49134" fill="#FFBD30"/>
<ellipse cx="22.7786" cy="9.03916" rx="22.7786" ry="9.03916" transform="matrix(0.970919 0.239407 -0.250218 0.96819 139.238 19.188)" fill="#8EC7F5"/>
<ellipse cx="176.368" cy="12.209" rx="2.59389" ry="2.53367" fill="#FFBD30"/>
<ellipse cx="184.46" cy="9.19969" rx="2.59389" ry="2.53367" fill="#FFBD30"/>
<path d="M4.02588 42.0825H10.039V45.0346C10.039 45.5869 9.59133 46.0346 9.03905 46.0346H5.02588C4.47359 46.0346 4.02588 45.5869 4.02588 45.0346V42.0825Z" fill="#1D2959"/>
<path d="M41.209 42.0825H47.2222V45.0346C47.2222 45.5869 46.7744 46.0346 46.2222 46.0346H42.209C41.6567 46.0346 41.209 45.5869 41.209 45.0346V42.0825Z" fill="#1D2959"/>
<path fill-rule="evenodd" clip-rule="evenodd" d="M28.8199 3.49769C27.647 3.04018 26.3658 2.67305 25.4362 2.69115C24.561 2.7082 23.3625 3.07871 22.2691 3.5245C21.6569 3.77407 21.0526 4.04927 20.4699 4.3605L20.4661 4.36258C19.7767 4.73699 18.9089 4.49126 18.528 3.81342C18.1471 3.13547 18.3971 2.28217 19.0865 1.90751C19.2873 1.79987 19.4908 1.69709 19.6955 1.597C20.0639 1.41695 20.5808 1.17631 21.1768 0.933333C22.3197 0.46734 23.9371 0.029537 25.3797 0.00143769C26.9149 -0.0284639 28.6472 0.412718 29.8715 0.890275C30.6354 1.18822 31.3885 1.51746 32.1124 1.90085L32.1133 1.90133C32.8061 2.26973 33.0641 3.12074 32.6895 3.8021C32.317 4.47965 31.439 4.7284 30.7524 4.36652C30.5769 4.27488 30.3988 4.18784 30.2199 4.10288C29.8701 3.93686 29.38 3.71612 28.8199 3.49769Z" fill="#8A4A38"/>
<path fill-rule="evenodd" clip-rule="evenodd" d="M19.2686 1.72656C18.6289 1.72656 18.1104 2.24512 18.1104 2.88479V3.59125C18.1104 4.12431 18.5425 4.55644 19.0755 4.55644H19.1016V8.20778H20.1123V4.53033H19.8629C20.5143 4.40353 21.0059 3.82993 21.0059 3.1415C21.0059 2.36005 20.3724 1.72656 19.591 1.72656H19.2686Z" fill="#F6EF3E"/>
<path fill-rule="evenodd" clip-rule="evenodd" d="M31.9428 1.72656C32.5825 1.72656 33.1011 2.24512 33.1011 2.88479V3.59125C33.1011 4.12431 32.6689 4.55644 32.1359 4.55644H32.1098V8.20778H31.0991V4.53033H31.3485C30.6971 4.40353 30.2055 3.82993 30.2055 3.1415C30.2055 2.36005 30.839 1.72656 31.6204 1.72656H31.9428Z" fill="#F6EF3E"/>
<path d="M0 16.7622C0 11.7916 4.02944 7.76221 9 7.76221H42.2528C47.2234 7.76221 51.2529 11.7916 51.2529 16.7622V42.0823H0V16.7622Z" fill="#8A4A38"/>
<ellipse cx="8.05329" cy="33.2468" rx="5.02106" ry="4.90602" fill="#EF9A9A"/>
<ellipse cx="4.809" cy="9.25666" rx="4.809" ry="9.25666" transform="matrix(0.705105 -0.709103 0.725462 0.688263 29.3711 30.4546)" fill="#93C6EB"/>
<rect width="16.3938" height="9.13788" transform="matrix(0.693231 -0.720716 0.736768 0.676145 19.7542 21.3154)" fill="#C2DEA3"/>
<rect width="8.33475" height="6.2458" rx="1" transform="matrix(0.73793 0.674877 -0.691986 0.721911 10.5845 13.2607)" fill="#C49A6C"/>
<rect x="10.0393" y="23.0498" width="7.06842" height="19.9996" fill="#F57B20"/>
<path d="M10.0393 6.46875H17.1077V23.7639C17.1077 25.7056 15.5153 27.2797 13.5735 27.2797C11.6318 27.2797 10.0393 25.7056 10.0393 23.7639V6.46875Z" fill="#F6A725"/>
<rect x="9.05957" y="21.478" width="9.03459" height="1.96354" fill="#F6EF3E"/>
<rect x="34.1519" y="23.0498" width="7.06842" height="19.9996" fill="#F57B20"/>
<path d="M34.1519 6.46875H41.2203V23.7639C41.2203 25.7056 39.6278 27.2797 37.6861 27.2797C35.7443 27.2797 34.1519 25.7056 34.1519 23.7639V6.46875Z" fill="#F6A725"/>
<rect x="33.1721" y="21.478" width="9.03459" height="1.96354" fill="#F6EF3E"/>
</svg>
