<svg width="42" height="42" viewBox="0 0 42 42" fill="currentColor" xmlns="http://www.w3.org/2000/svg">
<path fill-rule="evenodd" clip-rule="evenodd" d="M36.0564 30.4327L27.3956 22.5L36.0564 14.5673L34.8754 13.3053L22.2778 24.8438L9.68017 13.3053L8.49915 14.5673L17.16 22.5L8.49915 30.4327L9.68017 31.6947L18.4394 23.6719L22.2778 27.1875L26.1161 23.6719L34.8754 31.6947L36.0564 30.4327ZM6.9297 10C5.31167 10 4 11.3977 4 13.1157V31.8843C4 33.605 5.30103 35 6.9297 35H37.6259C39.2439 35 40.5556 33.6023 40.5556 31.8843V13.1157C40.5556 11.395 39.2545 10 37.6259 10H6.9297Z" />
</svg>
