<svg width="42" height="42" viewBox="0 0 42 42" fill="currentColor" xmlns="http://www.w3.org/2000/svg">
<path fill-rule="evenodd" clip-rule="evenodd" d="M20.9999 6.17236C15.407 6.17236 9.80065 7.1177 7.76644 9.00191C6.07869 10.5651 5.51608 13.3266 5.32643 15.0751C5.32643 15.0751 5.30029 15.2479 5.30029 15.3222C5.30029 16.0079 5.88889 16.5578 6.60853 16.5578C6.69357 16.5578 9.84004 16.3168 11.737 16.1686C11.7827 16.1623 11.8287 16.1562 11.8743 16.1439C12.5809 16.1255 13.1501 15.5817 13.1501 14.9083L13.1564 12.4741C13.1564 11.7203 13.8043 11.1148 14.6024 11.1148H27.3973C28.1956 11.1148 28.8435 11.7203 28.8435 12.4741L28.8499 14.9083C28.8499 15.5817 29.4191 16.1255 30.1255 16.1439C30.1709 16.1563 30.2169 16.1623 30.2631 16.1686C32.1602 16.3167 35.3066 16.5578 35.3913 16.5578C36.1107 16.5578 36.6997 16.0079 36.6997 15.3222C36.6997 15.2479 36.6736 15.0751 36.6736 15.0751C36.4838 13.3266 35.9218 10.5652 34.234 9.00191C32.1991 7.1177 26.5928 6.17236 20.9999 6.17236ZM20.9999 22.2355C19.5542 22.2355 18.3833 23.3413 18.3833 24.7067C18.3833 26.0721 19.5542 27.1778 20.9999 27.1778C22.4456 27.1778 23.6165 26.0721 23.6165 24.7067C23.6165 23.3413 22.4456 22.2355 20.9999 22.2355ZM19.0375 16.6751V15.1306C19.0375 14.2781 18.3047 13.5861 17.4021 13.5861C16.4995 13.5861 15.7668 14.2782 15.7668 15.1306V16.6751L6.94189 25.5779C6.33378 26.1402 5.95427 26.9245 5.95427 27.7897V30.2671C5.95427 31.6325 7.12528 32.7383 8.57089 32.7383H9.22509V34.2829C9.22509 35.1354 9.9579 35.8273 10.8605 35.8273C11.7631 35.8273 12.4958 35.1354 12.4958 34.2829V32.7383H29.504V34.2829C29.504 35.1354 30.2365 35.8273 31.1394 35.8273C32.042 35.8273 32.7746 35.1354 32.7746 34.2829V32.7383H33.4288C34.8745 32.7383 36.0454 31.6325 36.0454 30.2671V27.7897C36.0454 26.9245 35.6659 26.1401 35.0578 25.5779L26.2332 16.6751V15.1306C26.2332 14.2781 25.5003 13.5861 24.5977 13.5861C23.6951 13.5861 22.9625 14.2782 22.9625 15.1306V16.6751H19.0375ZM20.9999 19.7643C23.8913 19.7643 26.2332 21.976 26.2332 24.7067C26.2332 27.4375 23.8913 29.6494 20.9999 29.6494C18.1085 29.6494 15.7667 27.4375 15.7667 24.7067C15.7667 21.976 18.1085 19.7643 20.9999 19.7643Z" />
</svg>
