<svg width="133" height="25" viewBox="0 0 133 25" fill="none" xmlns="http://www.w3.org/2000/svg">
<g filter="url(#filter0_d_13528_964)">
<path d="M129.541 9.68704C130.514 9.08286 131 8.15141 131 6.8927C131 5.24797 130.3 3.95569 128.899 3.01585C127.538 2.05923 125.933 1.58092 124.086 1.58092C122.277 1.58092 120.623 2.10119 119.126 3.14172C117.648 4.16548 116.909 5.53328 116.909 7.24514C116.909 7.88288 117.113 8.41154 117.521 8.83112C117.93 9.23391 118.513 9.4353 119.272 9.4353C120.011 9.4353 120.575 9.23391 120.964 8.83112C121.372 8.41154 121.577 7.88288 121.577 7.24514C121.538 6.75843 121.703 6.26334 122.073 5.75985C122.442 5.23958 123.113 4.97945 124.086 4.97945C124.902 4.99623 125.486 5.19763 125.836 5.58363C126.206 5.96964 126.371 6.35564 126.332 6.74165C126.332 7.01017 126.235 7.2787 126.04 7.54723C125.846 7.81575 125.642 8.02554 125.428 8.17658C125.233 8.32763 124.912 8.54581 124.465 8.83112C124.017 9.11643 123.706 9.31782 123.531 9.4353C122.52 10.157 122.014 11.1136 122.014 12.3052C122.014 12.8926 122.228 13.3877 122.656 13.7905C123.103 14.1765 123.697 14.3695 124.436 14.3695C125.175 14.3695 125.758 14.1765 126.186 13.7905C126.633 13.3877 126.857 12.8926 126.857 12.3052C126.857 12.0534 126.906 11.8185 127.003 11.6003C127.1 11.3821 127.256 11.1807 127.47 10.9961C127.703 10.8115 127.898 10.6604 128.053 10.543C128.228 10.4255 128.481 10.2744 128.812 10.0898C129.162 9.90522 129.405 9.77096 129.541 9.68704Z" fill="white"/>
<path d="M104.612 14.9874L109.779 8.73713C110.309 7.98263 111.028 7.56252 111.937 7.47678C112.845 7.37389 113.64 7.58824 114.322 8.11981C115.003 8.65139 115.325 9.36301 115.287 10.2547V19.2057C115.287 19.7716 115.06 20.2517 114.605 20.6461C114.17 21.0234 113.64 21.212 113.016 21.212C112.391 21.212 111.852 21.0234 111.397 20.6461C110.962 20.2517 110.744 19.7716 110.744 19.2057V13.6499L105.577 19.9002C105.047 20.6547 104.328 21.0748 103.42 21.1606C102.511 21.2634 101.716 21.0491 101.035 20.5175C100.353 19.9859 100.032 19.2743 100.069 18.3826V9.45732C100.069 8.89145 100.287 8.41132 100.722 8.01693C101.177 7.62253 101.716 7.42534 102.341 7.42534C102.965 7.42534 103.495 7.62253 103.931 8.01693C104.385 8.41132 104.612 8.89145 104.612 9.45732V14.9874Z" fill="white"/>
<path fill-rule="evenodd" clip-rule="evenodd" d="M81.3812 19.1179V9.40711C81.3812 8.84872 81.1424 8.36885 80.6648 7.9675C80.2063 7.54871 79.6618 7.33931 79.0313 7.33931C78.42 7.33931 77.8851 7.54871 77.4266 7.9675C76.9681 8.36885 76.7388 8.84872 76.7388 9.40711V9.17154C76.5095 8.64805 76.051 8.20308 75.3633 7.83663C74.6755 7.45273 73.8922 7.26079 73.0134 7.26079C71.294 7.26079 69.7083 7.88025 68.2564 9.11919C66.8426 10.3581 66.1358 12.0595 66.1358 14.2233C66.1358 16.4394 66.8331 18.1582 68.2277 19.3797C69.6223 20.6012 71.2176 21.2119 73.0134 21.2119C73.8922 21.2119 74.666 21.0549 75.3346 20.7408C76.0033 20.4092 76.4904 20.0166 76.7961 19.5629C76.9107 20.034 77.1782 20.4267 77.5985 20.7408C78.0188 21.0374 78.4964 21.1857 79.0313 21.1857C79.6618 21.1857 80.2063 20.9851 80.6648 20.5837C81.1424 20.1824 81.3812 19.6938 81.3812 19.1179ZM74.052 17.3335C75.6182 17.3335 76.8878 15.99 76.8878 14.3328C76.8878 12.6755 75.6182 11.3321 74.052 11.3321C72.4859 11.3321 71.2163 12.6755 71.2163 14.3328C71.2163 15.99 72.4859 17.3335 74.052 17.3335Z" fill="white"/>
<path d="M60.0968 12.3703V9.56357C60.0968 8.99331 60.3333 8.50944 60.8063 8.11199C61.2794 7.69725 61.8312 7.48988 62.4619 7.48988C63.0927 7.48988 63.6445 7.69725 64.1175 8.11199C64.5906 8.50944 64.8271 8.99331 64.8271 9.56357V19.1803C64.8271 19.7506 64.5906 20.2345 64.1175 20.6319C63.6642 21.0294 63.1124 21.2281 62.4619 21.2281C61.8115 21.2281 61.2498 21.0294 60.7768 20.6319C60.3235 20.2345 60.0968 19.7506 60.0968 19.1803V16.3321H54.9822V19.1803C54.9822 19.7506 54.7456 20.2345 54.2726 20.6319C53.8193 21.0294 53.2674 21.2281 52.617 21.2281C51.9666 21.2281 51.4049 21.0294 50.9318 20.6319C50.4785 20.2345 50.2519 19.7506 50.2519 19.1803V9.56357C50.2519 8.99331 50.4884 8.50944 50.9614 8.11199C51.4344 7.69725 51.9863 7.48988 52.617 7.48988C53.2477 7.48988 53.7996 7.69725 54.2726 8.11199C54.7456 8.50944 54.9822 8.99331 54.9822 9.56357V12.3703H60.0968Z" fill="white"/>
<path d="M47.8786 7.48988C48.3419 7.48988 48.7391 7.6617 49.07 8.00535C49.401 8.34899 49.5664 9.14106 49.5664 9.62216C49.5664 10.1033 49.401 10.6007 49.07 10.9444C48.7391 11.288 48.3419 11.4089 47.8786 11.4089H43.9147V19.2298C43.9147 20.7099 42.5835 21.2282 41.2486 21.2282C40.0102 21.2282 38.8276 20.5724 38.8276 19.2437L38.8686 7.48988C38.8686 7.48988 45.775 7.48988 47.8786 7.48988Z" fill="white"/>
<path d="M19.5982 1.58092V19.0428C19.5982 19.6187 19.2784 20.1072 18.835 20.5085C18.4101 20.9099 17.7422 21.1105 17.1326 21.1105C16.5229 21.1105 15.6416 20.9099 15.1982 20.5085C14.7733 20.1072 14.5608 19.6186 14.5608 19.0427V5.52233H7.42855V19.0427C7.42855 19.6186 7.20685 20.1072 6.76347 20.5085C6.33856 20.9099 5.47342 21.1105 4.86377 21.1105C4.25411 21.1105 3.45502 20.9099 3.01164 20.5085C2.58672 20.1072 2.37427 19.6186 2.37427 19.0427V1.58092C8.08286 1.58092 19.5982 1.58092 19.5982 1.58092Z" fill="white"/>
<path d="M35.3848 19.0866C33.9424 20.4105 32.0121 21.0725 29.5939 21.0725C27.1757 21.0725 25.256 20.4105 23.8348 19.0866C22.3712 17.743 21.6394 16.0634 21.6394 14.0479C21.6394 12.0127 22.3712 10.3331 23.8348 9.00922C25.256 7.68533 27.1757 7.02339 29.5939 7.02339C32.0121 7.02339 33.9424 7.68533 35.3848 9.00922C36.8272 10.3529 37.5484 12.0324 37.5484 14.0479C37.5484 16.0634 36.8272 17.743 35.3848 19.0866ZM31.6303 11.9732C31.2272 11.5582 30.7287 11.3112 30.1348 11.2322C29.5621 11.1334 29.0106 11.1828 28.4803 11.3804C27.9712 11.578 27.5363 11.9139 27.1757 12.3881C26.8363 12.8623 26.6878 13.4156 26.7303 14.0479C26.7303 14.8778 26.9954 15.5694 27.5257 16.1227C28.0772 16.6562 28.7666 16.9229 29.5939 16.9229C30.4424 16.9229 31.1318 16.6661 31.6621 16.1523C32.1924 15.6188 32.4575 14.9173 32.4575 14.0479C32.4575 13.218 32.1818 12.5264 31.6303 11.9732Z" fill="white"/>
<path d="M88.154 7.42534C90.8659 7.42534 98.0921 7.46471 98.0921 7.46471C98.0921 7.46471 98.0976 16.0977 98.0976 19.1146C98.0976 19.6941 97.8537 20.1936 97.3659 20.6132C96.9003 21.0129 96.4791 21.2127 95.7696 21.2127C95.0602 21.2127 94.6986 21.2652 94.2109 20.8656C93.7453 20.446 93.3169 19.6941 93.3169 19.1146V11.3218H90.0257C90.0257 16.908 90.0258 18.1353 87.9212 20.1337C87.1453 20.853 86.1476 21.2127 84.9282 21.2127C84.1966 21.2127 83.7668 21.0412 83.3012 20.6416C82.8356 20.222 82.4742 19.5523 82.4742 18.9329C82.4742 17.5995 82.7605 17.0689 83.492 16.199C85.5912 16.199 85.5003 15.7019 85.3686 11.9212V9.52341C85.3908 8.94394 85.5003 7.42534 85.5003 7.42534C85.5003 7.42534 87.5111 7.42534 88.154 7.42534Z" fill="white"/>
<path d="M127.194 18.2747C127.194 19.8968 125.788 21.2118 124.053 21.2118C122.318 21.2118 120.912 19.8968 120.912 18.2747C120.912 16.6525 122.318 15.3375 124.053 15.3375C125.788 15.3375 127.194 16.6525 127.194 18.2747Z" fill="white"/>
</g>
<defs>
<filter id="filter0_d_13528_964" x="0.374268" y="0.580917" width="132.626" height="23.6473" filterUnits="userSpaceOnUse" color-interpolation-filters="sRGB">
<feFlood flood-opacity="0" result="BackgroundImageFix"/>
<feColorMatrix in="SourceAlpha" type="matrix" values="0 0 0 0 0 0 0 0 0 0 0 0 0 0 0 0 0 0 127 0" result="hardAlpha"/>
<feOffset dy="1"/>
<feGaussianBlur stdDeviation="1"/>
<feColorMatrix type="matrix" values="0 0 0 0 0 0 0 0 0 0 0 0 0 0 0 0 0 0 0.3 0"/>
<feBlend mode="normal" in2="BackgroundImageFix" result="effect1_dropShadow_13528_964"/>
<feBlend mode="normal" in="SourceGraphic" in2="effect1_dropShadow_13528_964" result="shape"/>
</filter>
</defs>
</svg>
