<svg xmlns="http://www.w3.org/2000/svg" xmlns:xlink="http://www.w3.org/1999/xlink"><defs>
<filter id="filter0_d_13528_1395" x="0.374268" y="0.581055" width="132.626" height="23.6475" filterUnits="userSpaceOnUse" color-interpolation-filters="sRGB">
<feFlood flood-opacity="0" result="BackgroundImageFix"/>
<feColorMatrix in="SourceAlpha" type="matrix" values="0 0 0 0 0 0 0 0 0 0 0 0 0 0 0 0 0 0 127 0" result="hardAlpha"/>
<feOffset dy="1"/>
<feGaussianBlur stdDeviation="1"/>
<feColorMatrix type="matrix" values="0 0 0 0 0 0 0 0 0 0 0 0 0 0 0 0 0 0 0.3 0"/>
<feBlend mode="normal" in2="BackgroundImageFix" result="effect1_dropShadow_13528_1395"/>
<feBlend mode="normal" in="SourceGraphic" in2="effect1_dropShadow_13528_1395" result="shape"/>
</filter>
</defs><symbol id="bicycle" viewBox="0 0 26 25"><g fill="currentColor">
<path d="M19.9453 21.875C19.0568 21.875 18.1883 21.6115 17.4496 21.1179C16.7109 20.6243 16.1351 19.9227 15.7951 19.1019C15.4551 18.2811 15.3661 17.3778 15.5394 16.5064C15.7128 15.635 16.1406 14.8346 16.7689 14.2064C17.3971 13.5781 18.1975 13.1503 19.0689 12.9769C19.9403 12.8036 20.8436 12.8926 21.6644 13.2326C22.4852 13.5726 23.1868 14.1484 23.6804 14.8871C24.174 15.6258 24.4375 16.4943 24.4375 17.3828C24.4362 18.5738 23.9625 19.7157 23.1203 20.5578C22.2782 21.4 21.1363 21.8737 19.9453 21.875V21.875ZM19.9453 14.4531C19.3659 14.4531 18.7995 14.6249 18.3177 14.9469C17.8359 15.2688 17.4604 15.7263 17.2386 16.2617C17.0169 16.797 16.9589 17.3861 17.0719 17.9544C17.185 18.5227 17.464 19.0447 17.8737 19.4544C18.2834 19.8641 18.8055 20.1432 19.3738 20.2562C19.9421 20.3692 20.5311 20.3112 21.0665 20.0895C21.6018 19.8678 22.0593 19.4922 22.3813 19.0105C22.7032 18.5287 22.875 17.9623 22.875 17.3828C22.8741 16.6061 22.5651 15.8614 22.0159 15.3122C21.4667 14.763 20.722 14.454 19.9453 14.4531V14.4531Z"/>
<path d="M7.05469 21.875C6.16622 21.875 5.2977 21.6115 4.55896 21.1179C3.82023 20.6243 3.24445 19.9227 2.90445 19.1019C2.56445 18.2811 2.47549 17.3778 2.64882 16.5064C2.82215 15.635 3.24999 14.8346 3.87823 14.2064C4.50648 13.5781 5.30691 13.1503 6.17831 12.9769C7.04971 12.8036 7.95294 12.8926 8.77378 13.2326C9.59462 13.5726 10.2962 14.1484 10.7898 14.8871C11.2834 15.6258 11.5469 16.4943 11.5469 17.3828C11.5456 18.5738 11.0719 19.7157 10.2297 20.5578C9.38755 21.4 8.24569 21.8737 7.05469 21.875V21.875ZM7.05469 14.4531C6.47525 14.4531 5.90883 14.6249 5.42704 14.9469C4.94526 15.2688 4.56975 15.7263 4.34801 16.2617C4.12627 16.797 4.06825 17.3861 4.1813 17.9544C4.29434 18.5227 4.57336 19.0447 4.98309 19.4544C5.39281 19.8641 5.91483 20.1432 6.48314 20.2562C7.05144 20.3692 7.6405 20.3112 8.17583 20.0895C8.71116 19.8678 9.16872 19.4922 9.49064 19.0105C9.81255 18.5287 9.98438 17.9623 9.98438 17.3828C9.98347 16.6061 9.67452 15.8614 9.12529 15.3122C8.57607 14.763 7.83141 14.454 7.05469 14.4531V14.4531Z"/>
<path d="M16.625 6.25005C16.8308 6.25076 17.0347 6.21067 17.2249 6.1321C17.4151 6.05352 17.5879 5.93802 17.7332 5.79227C17.8785 5.64651 17.9934 5.47341 18.0714 5.28295C18.1494 5.09249 18.1889 4.88847 18.1875 4.68267C18.1898 4.4779 18.1512 4.27473 18.0741 4.08504C17.9969 3.89535 17.8827 3.72295 17.7381 3.57792C17.5935 3.43289 17.4215 3.31814 17.232 3.24038C17.0426 3.16262 16.8395 3.12341 16.6348 3.12505C16.4296 3.12441 16.2263 3.16419 16.0365 3.24212C15.8466 3.32005 15.674 3.4346 15.5285 3.57924C15.3829 3.72388 15.2673 3.89577 15.1882 4.0851C15.1091 4.27442 15.068 4.47748 15.0674 4.68267C15.0667 4.88786 15.1065 5.09116 15.1845 5.28098C15.2624 5.4708 15.3769 5.64341 15.5216 5.78895C15.6662 5.9345 15.8381 6.05013 16.0274 6.12924C16.2168 6.20836 16.4198 6.24941 16.625 6.25005V6.25005Z"/>
<path d="M18.9468 9.37529H16.8101C16.775 9.3753 16.7406 9.36587 16.7104 9.348C16.6803 9.33013 16.6555 9.30448 16.6387 9.27373L15.0889 6.43339C14.9797 6.22232 14.8223 6.03991 14.6295 5.90096C14.4367 5.762 14.2139 5.67039 13.9791 5.63354C13.7444 5.59669 13.5042 5.61564 13.2781 5.68886C13.052 5.76208 12.8463 5.8875 12.6777 6.05498L9.2666 9.49248C8.98003 9.78497 8.81736 10.1768 8.8125 10.5862C8.8125 11.4358 9.42773 11.7386 9.71582 11.9095C11.1074 12.7112 12.0874 13.2977 12.625 13.6233C12.6536 13.6407 12.6772 13.6652 12.6936 13.6943C12.71 13.7235 12.7187 13.7564 12.7188 13.7898V17.1648C12.7188 17.5853 13.042 17.9461 13.4624 17.9671C13.568 17.9722 13.6734 17.9558 13.7725 17.9189C13.8715 17.8821 13.962 17.8255 14.0386 17.7527C14.1151 17.6798 14.1761 17.5922 14.2178 17.4951C14.2595 17.398 14.2811 17.2935 14.2813 17.1878V12.9886C14.2813 12.8645 14.2519 12.7423 14.1953 12.6319C14.1388 12.5215 14.0568 12.4262 13.9561 12.3538L12.1494 11.0545C12.1267 11.0383 12.1078 11.0174 12.0939 10.9932C12.0799 10.9691 12.0713 10.9422 12.0687 10.9144C12.066 10.8867 12.0693 10.8587 12.0783 10.8323C12.0874 10.8059 12.1019 10.7818 12.1211 10.7615L14.1719 8.57451C14.1929 8.55201 14.219 8.5348 14.2479 8.52428C14.2768 8.51377 14.3079 8.51025 14.3384 8.51401C14.369 8.51777 14.3982 8.52871 14.4238 8.54593C14.4493 8.56314 14.4704 8.58615 14.4854 8.61308L15.5508 10.5359C15.6185 10.6578 15.7176 10.7594 15.8378 10.83C15.958 10.9007 16.0949 10.9379 16.2344 10.9378H18.9688C19.0746 10.9379 19.1793 10.9165 19.2767 10.8749C19.374 10.8333 19.4618 10.7724 19.5349 10.6958C19.608 10.6193 19.6647 10.5286 19.7017 10.4295C19.7387 10.3303 19.7551 10.2247 19.75 10.1189C19.7295 9.69853 19.3672 9.37529 18.9468 9.37529Z"/>
</g></symbol><symbol id="bus" viewBox="0 0 26 25"><g fill="currentColor">
<path d="M8.50099 15.5714C8.50099 15.1771 8.35457 14.8404 8.06172 14.5614C7.76888 14.2824 7.41551 14.1429 7.00162 14.1429C6.58773 14.1429 6.23436 14.2824 5.94151 14.5614C5.64867 14.8404 5.50224 15.1771 5.50224 15.5714C5.50224 15.9658 5.64867 16.3025 5.94151 16.5815C6.23436 16.8605 6.58773 17 7.00162 17C7.41551 17 7.76888 16.8605 8.06172 16.5815C8.35457 16.3025 8.50099 15.9658 8.50099 15.5714ZM20.496 15.5714C20.496 15.1771 20.3496 14.8404 20.0567 14.5614C19.7639 14.2824 19.4105 14.1429 18.9966 14.1429C18.5827 14.1429 18.2294 14.2824 17.9365 14.5614C17.6437 14.8404 17.4972 15.1771 17.4972 15.5714C17.4972 15.9658 17.6437 16.3025 17.9365 16.5815C18.2294 16.8605 18.5827 17 18.9966 17C19.4105 17 19.7639 16.8605 20.0567 16.5815C20.3496 16.3025 20.496 15.9658 20.496 15.5714ZM19.9572 11.1518L19.1138 6.86607C19.0747 6.69494 18.9869 6.55543 18.8502 6.44754C18.7135 6.33966 18.5554 6.28571 18.3758 6.28571H7.62245C7.44284 6.28571 7.2847 6.33966 7.14804 6.44754C7.01138 6.55543 6.92353 6.69494 6.88448 6.86607L6.04108 11.1518C6.00204 11.375 6.0567 11.5722 6.20508 11.7433C6.35345 11.9144 6.54478 12 6.77906 12H19.2192C19.4535 12 19.6448 11.9144 19.7932 11.7433C19.9415 11.5722 19.9962 11.375 19.9572 11.1518ZM17.3098 4.32143C17.3098 4.17262 17.2552 4.04613 17.1458 3.94196C17.0365 3.8378 16.9037 3.78571 16.7476 3.78571H9.25068C9.0945 3.78571 8.96174 3.8378 8.85241 3.94196C8.74308 4.04613 8.68842 4.17262 8.68842 4.32143C8.68842 4.47024 8.74308 4.59673 8.85241 4.70089C8.96174 4.80506 9.0945 4.85714 9.25068 4.85714H16.7476C16.9037 4.85714 17.0365 4.80506 17.1458 4.70089C17.2552 4.59673 17.3098 4.47024 17.3098 4.32143ZM21.9954 12.4129V19.1429H20.496V20.5714C20.496 20.9658 20.3496 21.3025 20.0567 21.5815C19.7639 21.8605 19.4105 22 18.9966 22C18.5827 22 18.2294 21.8605 17.9365 21.5815C17.6437 21.3025 17.4972 20.9658 17.4972 20.5714V19.1429H8.50099V20.5714C8.50099 20.9658 8.35457 21.3025 8.06172 21.5815C7.76888 21.8605 7.41551 22 7.00162 22C6.58773 22 6.23436 21.8605 5.94151 21.5815C5.64867 21.3025 5.50224 20.9658 5.50224 20.5714V19.1429H4.00287V12.4129C4.00287 11.5796 4.10048 10.75 4.29572 9.92411L5.50224 4.85714C5.57253 4.27679 5.95323 3.76711 6.64435 3.32812C7.33546 2.88914 8.23353 2.55804 9.33854 2.33482C10.4435 2.11161 11.6637 2 12.9991 2C14.3345 2 15.5547 2.11161 16.6597 2.33482C17.7647 2.55804 18.6628 2.88914 19.3539 3.32812C20.045 3.76711 20.4257 4.27679 20.496 4.85714L21.726 9.92411C21.9056 10.683 21.9954 11.5126 21.9954 12.4129Z"/>
</g></symbol><symbol id="businessman" viewBox="0 0 29 29"><g fill="currentColor">
<path d="M24.4731 24.0259V20.5393C24.4731 19.5631 24.3296 18.5868 23.7555 17.6105C23.1815 16.6343 22.464 15.7975 21.4595 15.2396C20.455 14.5423 18.3024 14.4028 17.2979 14.4028L15.0018 16.7737L15.8628 18.5868V22.7708L14.4278 24.3049L12.9928 22.7708V18.5868L13.9973 16.7737L11.5577 14.4028C10.4097 14.4028 8.25716 14.5423 7.25264 15.2396C6.24811 15.7975 5.6741 16.6343 5.10009 17.6105C4.52607 18.5868 4.38257 19.4236 4.38257 20.5393V24.0259C4.38257 24.0259 8.11366 25.5601 14.4278 25.5601C20.742 25.5601 24.4731 24.0259 24.4731 24.0259Z"/>
<path d="M14.4278 3.38525C11.7012 3.38525 10.1227 5.89563 10.5532 8.68494C10.9837 11.4742 12.4187 13.4268 14.4278 13.4268C16.4368 13.4268 17.8719 11.4742 18.3024 8.68494C18.7329 5.75617 17.1544 3.38525 14.4278 3.38525Z"/>
</g></symbol><symbol id="call" viewBox="0 0 18 18"><g fill="currentColor">
<path d="M8.97412 7.42388C8.97412 7.61288 9.12775 7.76138 9.3155 7.76138C9.70468 7.76138 10.0187 8.07526 10.0187 8.45663C10.0187 8.64225 10.1724 8.79413 10.3601 8.79413C10.5479 8.79413 10.7015 8.64225 10.7015 8.45663C10.7015 7.70064 10.0802 7.08638 9.3155 7.08638C9.12775 7.08638 8.97412 7.23826 8.97412 7.42388ZM14.5318 8.79413C14.723 8.79413 14.8732 8.64225 14.8732 8.45663C14.8732 5.42589 12.3811 2.96214 9.3155 2.96214C9.12775 2.96214 8.97412 3.114 8.97412 3.29964C8.97412 3.48526 9.12775 3.63714 9.3155 3.63714C12.0056 3.63714 14.1904 5.80051 14.1904 8.45663C14.1904 8.64225 14.344 8.79413 14.5318 8.79413Z"/>
<path d="M12.1047 8.45663C12.1047 8.64225 12.2583 8.79413 12.446 8.79413C12.6338 8.79413 12.7874 8.64225 12.7874 8.45663C12.7874 6.56326 11.2307 5.02426 9.3156 5.02426C9.12785 5.02426 8.97422 5.17614 8.97422 5.36176C8.97422 5.55076 9.12785 5.69926 9.3156 5.69926C10.8552 5.69926 12.1047 6.93788 12.1047 8.45663ZM9.3156 0.900002C9.12785 0.900002 8.97422 1.05188 8.97422 1.2375C8.97422 1.42314 9.12785 1.575 9.3156 1.575C13.1561 1.575 16.2797 4.66314 16.2797 8.45663C16.2797 8.64225 16.43 8.79413 16.6211 8.79413C16.8089 8.79413 16.9625 8.64225 16.9625 8.45663C16.9625 4.28852 13.5316 0.900002 9.3156 0.900002ZM12.6509 12.0139L12.2037 12.2535C11.4492 12.6619 10.8621 13.7813 9.93111 12.9375L7.50006 10.5L5.39999 8.45663C4.3449 7.1235 5.5263 6.80625 5.93936 6.05701L6.18174 5.61827C6.45484 5.11875 6.55383 4.55851 6.47191 3.99825C6.3934 3.43801 6.13736 2.92838 5.7277 2.52338C5.2293 2.03064 4.56703 1.76064 3.86037 1.76064C3.15371 1.76064 2.48802 2.03064 1.9896 2.52338L1.81551 2.69888C0.893782 3.61014 0.787955 5.1795 1.51509 7.1235C2.20125 8.97975 3.58385 10.9913 5.39999 12.7868C8.16857 15.5239 11.2512 17.1 13.4634 17.1C14.3373 17.1 15.0781 16.8536 15.6038 16.3339L15.7813 16.1584C16.2763 15.669 16.5528 15.0143 16.5563 14.3089C16.5528 13.6204 16.2695 12.9454 15.7813 12.4628C14.9586 11.6494 13.6716 11.4671 12.6509 12.0139Z"/>
</g></symbol><symbol id="check" viewBox="0 0 18 17"><g fill="none">
<path d="M7.38679 14.1809L4 10.5V10V9C4 8.95907 4 9.04093 4 9C4 8.78516 4.00007 8.5 4.00007 8.5V7.5L7.37736 10.7561C7.49314 10.8776 7.68161 10.8761 7.79738 10.7547L15.0001 3V5.07271V6C15.0001 6.5 15.0001 6.5 15.0001 6.5L8.80839 13.1208L8.80974 13.1222L7.80681 14.1795C7.69103 14.3009 7.50256 14.3009 7.38679 14.1809Z" fill="#161C35"/>
</g></symbol><symbol id="filter" viewBox="0 0 23 15"><g fill="none">
<rect x="11" width="12" height="3" fill="#192144"/>
<rect x="11" y="12" width="12" height="3" fill="#192144"/>
<rect y="6" width="12" height="3" fill="#192144"/>
<rect x="6" width="3" height="3" fill="#192144"/>
<rect x="6" y="12" width="3" height="3" fill="#192144"/>
<rect x="14" y="6" width="3" height="3" fill="#192144"/>
<rect width="4" height="3" fill="#192144"/>
<rect y="12" width="4" height="3" fill="#192144"/>
<rect x="19" y="6" width="4" height="3" fill="#192144"/>
</g></symbol><symbol id="heart" viewBox="-1 -1 22 22">
  <path stroke-width="1" vector-effect="non-scaling-stroke" d="M5 0.25C7.7625 0.25 10 2.44375 10 5.15C10 2.44375 12.2375 0.25 15 0.25C17.7625 0.25 20 2.44375 20 5.15C20 9.22875 15.9575 10.6675 10.49 17.16C10.4298 17.2313 10.3548 17.2886 10.2701 17.3279C10.1855 17.3672 10.0933 17.3876 10 17.3876C9.90668 17.3876 9.81449 17.3672 9.72986 17.3279C9.64523 17.2886 9.57019 17.2313 9.51 17.16C4.0425 10.6675 0 9.22875 0 5.15C0 2.44375 2.2375 0.25 5 0.25Z"/>
</symbol><symbol id="location" viewBox="0 0 42 42"><g fill="none">
<path d="M21 0C12.3034 0 5.25 7.05337 5.25 15.75C5.25 25.8667 12.8569 30.2898 14.5385 32.3077C18.5769 37.1538 18.8051 42 21 42C23.1949 42 23.4231 37.1538 27.4615 32.3077C29.1431 30.2898 36.75 25.8667 36.75 15.75C36.75 7.05337 29.6966 0 21 0ZM21 26.25C15.2014 26.25 10.5 21.5486 10.5 15.75C10.5 9.95137 15.2014 5.25 21 5.25C26.7986 5.25 31.5 9.95137 31.5 15.75C31.5 21.5486 26.7986 26.25 21 26.25ZM21 10.5C18.102 10.5 15.75 12.852 15.75 15.75C15.75 18.648 18.102 21 21 21C23.898 21 26.25 18.648 26.25 15.75C26.25 12.852 23.898 10.5 21 10.5Z" fill="#CCE5FA"/>
<ellipse cx="21" cy="15.75" rx="1.75" ry="1.75" fill="#161C35"/>
</g></symbol><symbol id="logo-bg" viewBox="0 0 188 50"><g fill="none">
<path d="M93.9956 12.6435L53.899 50L39.2637 2.10889L93.9956 12.6435Z" fill="#4D99D6"/>
<ellipse cx="94.7273" cy="33.8974" rx="4.353" ry="4.25194" fill="#88BFEB"/>
<ellipse cx="111.867" cy="21.5315" rx="15.1738" ry="14.8215" fill="#EB9898"/>
<rect width="56.1361" height="28.0819" transform="matrix(0.940449 -0.339936 0.354277 0.93514 102.938 23.3032)" fill="#72A73E"/>
<ellipse cx="110.041" cy="40.6437" rx="2.55056" ry="2.49134" fill="#FFBD30"/>
<ellipse cx="22.7786" cy="9.03916" rx="22.7786" ry="9.03916" transform="matrix(0.970919 0.239407 -0.250218 0.96819 139.238 19.188)" fill="#8EC7F5"/>
<ellipse cx="176.368" cy="12.209" rx="2.59389" ry="2.53367" fill="#FFBD30"/>
<ellipse cx="184.46" cy="9.19969" rx="2.59389" ry="2.53367" fill="#FFBD30"/>
<path d="M4.02588 42.0825H10.039V45.0346C10.039 45.5869 9.59133 46.0346 9.03905 46.0346H5.02588C4.47359 46.0346 4.02588 45.5869 4.02588 45.0346V42.0825Z" fill="#1D2959"/>
<path d="M41.209 42.0825H47.2222V45.0346C47.2222 45.5869 46.7744 46.0346 46.2222 46.0346H42.209C41.6567 46.0346 41.209 45.5869 41.209 45.0346V42.0825Z" fill="#1D2959"/>
<path fill-rule="evenodd" clip-rule="evenodd" d="M28.8199 3.49769C27.647 3.04018 26.3658 2.67305 25.4362 2.69115C24.561 2.7082 23.3625 3.07871 22.2691 3.5245C21.6569 3.77407 21.0526 4.04927 20.4699 4.3605L20.4661 4.36258C19.7767 4.73699 18.9089 4.49126 18.528 3.81342C18.1471 3.13547 18.3971 2.28217 19.0865 1.90751C19.2873 1.79987 19.4908 1.69709 19.6955 1.597C20.0639 1.41695 20.5808 1.17631 21.1768 0.933333C22.3197 0.46734 23.9371 0.029537 25.3797 0.00143769C26.9149 -0.0284639 28.6472 0.412718 29.8715 0.890275C30.6354 1.18822 31.3885 1.51746 32.1124 1.90085L32.1133 1.90133C32.8061 2.26973 33.0641 3.12074 32.6895 3.8021C32.317 4.47965 31.439 4.7284 30.7524 4.36652C30.5769 4.27488 30.3988 4.18784 30.2199 4.10288C29.8701 3.93686 29.38 3.71612 28.8199 3.49769Z" fill="#8A4A38"/>
<path fill-rule="evenodd" clip-rule="evenodd" d="M19.2686 1.72656C18.6289 1.72656 18.1104 2.24512 18.1104 2.88479V3.59125C18.1104 4.12431 18.5425 4.55644 19.0755 4.55644H19.1016V8.20778H20.1123V4.53033H19.8629C20.5143 4.40353 21.0059 3.82993 21.0059 3.1415C21.0059 2.36005 20.3724 1.72656 19.591 1.72656H19.2686Z" fill="#F6EF3E"/>
<path fill-rule="evenodd" clip-rule="evenodd" d="M31.9428 1.72656C32.5825 1.72656 33.1011 2.24512 33.1011 2.88479V3.59125C33.1011 4.12431 32.6689 4.55644 32.1359 4.55644H32.1098V8.20778H31.0991V4.53033H31.3485C30.6971 4.40353 30.2055 3.82993 30.2055 3.1415C30.2055 2.36005 30.839 1.72656 31.6204 1.72656H31.9428Z" fill="#F6EF3E"/>
<path d="M0 16.7622C0 11.7916 4.02944 7.76221 9 7.76221H42.2528C47.2234 7.76221 51.2529 11.7916 51.2529 16.7622V42.0823H0V16.7622Z" fill="#8A4A38"/>
<ellipse cx="8.05329" cy="33.2468" rx="5.02106" ry="4.90602" fill="#EF9A9A"/>
<ellipse cx="4.809" cy="9.25666" rx="4.809" ry="9.25666" transform="matrix(0.705105 -0.709103 0.725462 0.688263 29.3711 30.4546)" fill="#93C6EB"/>
<rect width="16.3938" height="9.13788" transform="matrix(0.693231 -0.720716 0.736768 0.676145 19.7542 21.3154)" fill="#C2DEA3"/>
<rect width="8.33475" height="6.2458" rx="1" transform="matrix(0.73793 0.674877 -0.691986 0.721911 10.5845 13.2607)" fill="#C49A6C"/>
<rect x="10.0393" y="23.0498" width="7.06842" height="19.9996" fill="#F57B20"/>
<path d="M10.0393 6.46875H17.1077V23.7639C17.1077 25.7056 15.5153 27.2797 13.5735 27.2797C11.6318 27.2797 10.0393 25.7056 10.0393 23.7639V6.46875Z" fill="#F6A725"/>
<rect x="9.05957" y="21.478" width="9.03459" height="1.96354" fill="#F6EF3E"/>
<rect x="34.1519" y="23.0498" width="7.06842" height="19.9996" fill="#F57B20"/>
<path d="M34.1519 6.46875H41.2203V23.7639C41.2203 25.7056 39.6278 27.2797 37.6861 27.2797C35.7443 27.2797 34.1519 25.7056 34.1519 23.7639V6.46875Z" fill="#F6A725"/>
<rect x="33.1721" y="21.478" width="9.03459" height="1.96354" fill="#F6EF3E"/>
</g></symbol><symbol id="logo-text" viewBox="0 0 133 25"><g fill="currentColor">
<g filter="url(#filter0_d_13528_1395)">
<path d="M129.541 9.68722C130.514 9.08303 131 8.15158 131 6.89286C131 5.24813 130.3 3.95584 128.899 3.016C127.538 2.05937 125.933 1.58105 124.086 1.58105C122.277 1.58105 120.623 2.10133 119.126 3.14187C117.648 4.16563 116.909 5.53344 116.909 7.2453C116.909 7.88305 117.113 8.41172 117.521 8.83129C117.93 9.23408 118.513 9.43548 119.272 9.43548C120.011 9.43548 120.575 9.23408 120.964 8.83129C121.372 8.41172 121.577 7.88305 121.577 7.2453C121.538 6.75859 121.703 6.2635 122.073 5.76001C122.442 5.23974 123.113 4.9796 124.086 4.9796C124.902 4.99638 125.486 5.19778 125.836 5.58379C126.206 5.9698 126.371 6.3558 126.332 6.74181C126.332 7.01034 126.235 7.27887 126.04 7.54739C125.846 7.81592 125.642 8.02571 125.428 8.17675C125.233 8.3278 124.912 8.54598 124.465 8.83129C124.017 9.1166 123.706 9.318 123.531 9.43548C122.52 10.1571 122.014 11.1138 122.014 12.3054C122.014 12.8928 122.228 13.3879 122.656 13.7907C123.103 14.1767 123.697 14.3697 124.436 14.3697C125.175 14.3697 125.758 14.1767 126.186 13.7907C126.633 13.3879 126.857 12.8928 126.857 12.3054C126.857 12.0536 126.906 11.8187 127.003 11.6005C127.1 11.3823 127.256 11.1809 127.47 10.9963C127.703 10.8117 127.898 10.6606 128.053 10.5432C128.228 10.4257 128.481 10.2746 128.812 10.09C129.162 9.9054 129.405 9.77114 129.541 9.68722Z"/>
<path d="M104.612 14.9876L109.779 8.7373C110.309 7.9828 111.028 7.56268 111.937 7.47695C112.845 7.37406 113.64 7.58841 114.322 8.11998C115.003 8.65156 115.325 9.36319 115.287 10.2549V19.206C115.287 19.7718 115.06 20.252 114.605 20.6464C114.17 21.0236 113.64 21.2122 113.016 21.2122C112.391 21.2122 111.852 21.0236 111.397 20.6464C110.962 20.252 110.744 19.7718 110.744 19.206V13.6501L105.577 19.9004C105.047 20.6549 104.328 21.075 103.42 21.1608C102.511 21.2637 101.716 21.0493 101.035 20.5177C100.353 19.9862 100.032 19.2745 100.069 18.3829V9.4575C100.069 8.89163 100.287 8.41149 100.722 8.0171C101.177 7.6227 101.716 7.4255 102.341 7.4255C102.965 7.4255 103.495 7.6227 103.931 8.0171C104.385 8.41149 104.612 8.89163 104.612 9.4575V14.9876Z"/>
<path fill-rule="evenodd" clip-rule="evenodd" d="M81.3812 19.1182V9.40729C81.3812 8.84889 81.1424 8.36902 80.6648 7.96767C80.2063 7.54887 79.6618 7.33948 79.0313 7.33948C78.42 7.33948 77.8851 7.54887 77.4266 7.96767C76.9681 8.36902 76.7388 8.84889 76.7388 9.40729V9.17172C76.5095 8.64822 76.051 8.20325 75.3633 7.8368C74.6755 7.4529 73.8922 7.26095 73.0134 7.26095C71.294 7.26095 69.7083 7.88042 68.2564 9.11937C66.8426 10.3583 66.1358 12.0597 66.1358 14.2235C66.1358 16.4396 66.8331 18.1584 68.2277 19.3799C69.6223 20.6014 71.2176 21.2121 73.0134 21.2121C73.8922 21.2121 74.666 21.0551 75.3346 20.741C76.0033 20.4094 76.4904 20.0168 76.7961 19.5631C76.9107 20.0343 77.1782 20.4269 77.5985 20.741C78.0188 21.0376 78.4964 21.186 79.0313 21.186C79.6618 21.186 80.2063 20.9853 80.6648 20.5839C81.1424 20.1826 81.3812 19.694 81.3812 19.1182ZM74.052 17.3337C75.6182 17.3337 76.8878 15.9902 76.8878 14.333C76.8878 12.6757 75.6182 11.3322 74.052 11.3322C72.4859 11.3322 71.2163 12.6757 71.2163 14.333C71.2163 15.9902 72.4859 17.3337 74.052 17.3337Z"/>
<path d="M60.0968 12.3705V9.56375C60.0968 8.99348 60.3333 8.50962 60.8063 8.11216C61.2794 7.69742 61.8312 7.49005 62.4619 7.49005C63.0927 7.49005 63.6445 7.69742 64.1175 8.11216C64.5906 8.50962 64.8271 8.99348 64.8271 9.56375V19.1806C64.8271 19.7508 64.5906 20.2347 64.1175 20.6321C63.6642 21.0296 63.1124 21.2283 62.4619 21.2283C61.8115 21.2283 61.2498 21.0296 60.7768 20.6321C60.3235 20.2347 60.0968 19.7508 60.0968 19.1806V16.3324H54.9822V19.1806C54.9822 19.7508 54.7456 20.2347 54.2726 20.6321C53.8193 21.0296 53.2674 21.2283 52.617 21.2283C51.9666 21.2283 51.4049 21.0296 50.9318 20.6321C50.4785 20.2347 50.2519 19.7508 50.2519 19.1806V9.56375C50.2519 8.99348 50.4884 8.50962 50.9614 8.11216C51.4344 7.69742 51.9863 7.49005 52.617 7.49005C53.2477 7.49005 53.7996 7.69742 54.2726 8.11216C54.7456 8.50962 54.9822 8.99348 54.9822 9.56375V12.3705H60.0968Z"/>
<path d="M47.8786 7.49005C48.3419 7.49005 48.7391 7.66187 49.07 8.00552C49.401 8.34916 49.5664 9.14123 49.5664 9.62234C49.5664 10.1034 49.401 10.6009 49.07 10.9445C48.7391 11.2882 48.3419 11.4091 47.8786 11.4091H43.9147V19.23C43.9147 20.7101 42.5835 21.2284 41.2486 21.2284C40.0102 21.2284 38.8276 20.5726 38.8276 19.244L38.8686 7.49005C38.8686 7.49005 45.775 7.49005 47.8786 7.49005Z"/>
<path d="M19.5982 1.58105V19.0431C19.5982 19.6189 19.2784 20.1074 18.835 20.5087C18.4101 20.9101 17.7422 21.1108 17.1326 21.1108C16.5229 21.1108 15.6416 20.9101 15.1982 20.5087C14.7733 20.1074 14.5608 19.6188 14.5608 19.0429V5.52249H7.42855V19.0429C7.42855 19.6188 7.20685 20.1074 6.76347 20.5087C6.33856 20.9101 5.47342 21.1108 4.86377 21.1108C4.25411 21.1108 3.45502 20.9101 3.01164 20.5087C2.58672 20.1074 2.37427 19.6188 2.37427 19.0429V1.58105C8.08286 1.58105 19.5982 1.58105 19.5982 1.58105Z"/>
<path d="M35.3848 19.0868C33.9424 20.4107 32.0121 21.0727 29.5939 21.0727C27.1757 21.0727 25.256 20.4107 23.8348 19.0868C22.3712 17.7432 21.6394 16.0636 21.6394 14.0481C21.6394 12.0129 22.3712 10.3333 23.8348 9.0094C25.256 7.6855 27.1757 7.02355 29.5939 7.02355C32.0121 7.02355 33.9424 7.6855 35.3848 9.0094C36.8272 10.3531 37.5484 12.0326 37.5484 14.0481C37.5484 16.0636 36.8272 17.7432 35.3848 19.0868ZM31.6303 11.9734C31.2272 11.5584 30.7287 11.3114 30.1348 11.2324C29.5621 11.1336 29.0106 11.183 28.4803 11.3806C27.9712 11.5782 27.5363 11.9141 27.1757 12.3883C26.8363 12.8625 26.6878 13.4158 26.7303 14.0481C26.7303 14.878 26.9954 15.5696 27.5257 16.1229C28.0772 16.6564 28.7666 16.9232 29.5939 16.9232C30.4424 16.9232 31.1318 16.6663 31.6621 16.1525C32.1924 15.619 32.4575 14.9175 32.4575 14.0481C32.4575 13.2182 32.1818 12.5266 31.6303 11.9734Z"/>
<path d="M88.154 7.4255C90.8659 7.4255 98.0921 7.46488 98.0921 7.46488C98.0921 7.46488 98.0976 16.0979 98.0976 19.1148C98.0976 19.6943 97.8537 20.1938 97.3659 20.6135C96.9003 21.0131 96.4791 21.2129 95.7696 21.2129C95.0602 21.2129 94.6986 21.2654 94.2109 20.8658C93.7453 20.4462 93.3169 19.6943 93.3169 19.1148V11.3219H90.0257C90.0257 16.9082 90.0258 18.1355 87.9212 20.1339C87.1453 20.8532 86.1476 21.2129 84.9282 21.2129C84.1966 21.2129 83.7668 21.0415 83.3012 20.6418C82.8356 20.2222 82.4742 19.5526 82.4742 18.9331C82.4742 17.5997 82.7605 17.0691 83.492 16.1992C85.5912 16.1992 85.5003 15.7021 85.3686 11.9214V9.52359C85.3908 8.94412 85.5003 7.4255 85.5003 7.4255C85.5003 7.4255 87.5111 7.4255 88.154 7.4255Z"/>
<path d="M127.194 18.2749C127.194 19.8971 125.788 21.2121 124.053 21.2121C122.318 21.2121 120.912 19.8971 120.912 18.2749C120.912 16.6527 122.318 15.3377 124.053 15.3377C125.788 15.3377 127.194 16.6527 127.194 18.2749Z"/>
</g>

</g></symbol><symbol id="mail-closed" viewBox="0 0 42 42"><g fill="currentColor">
<path fill-rule="evenodd" clip-rule="evenodd" d="M36.0564 30.4327L27.3956 22.5L36.0564 14.5673L34.8754 13.3053L22.2778 24.8438L9.68017 13.3053L8.49915 14.5673L17.16 22.5L8.49915 30.4327L9.68017 31.6947L18.4394 23.6719L22.2778 27.1875L26.1161 23.6719L34.8754 31.6947L36.0564 30.4327ZM6.9297 10C5.31167 10 4 11.3977 4 13.1157V31.8843C4 33.605 5.30103 35 6.9297 35H37.6259C39.2439 35 40.5556 33.6023 40.5556 31.8843V13.1157C40.5556 11.395 39.2545 10 37.6259 10H6.9297Z"/>
</g></symbol><symbol id="mail" viewBox="0 0 16 14"><g fill="currentColor">
<path d="M1.25901 2.60026L7.25901 6.36066C7.46061 6.48666 7.72141 6.54639 7.98381 6.54639C8.24621 6.54639 8.50701 6.48666 8.70861 6.36066L14.7086 2.60026C15.0998 2.35479 15.4694 1.39999 14.7518 1.39999H1.21661C0.499006 1.39999 0.868606 2.35479 1.25901 2.60026ZM14.8902 4.65639L8.70861 8.41493C8.43661 8.58106 8.24621 8.60066 7.98381 8.60066C7.72141 8.60066 7.53101 8.58106 7.25901 8.41493C6.98701 8.24879 1.55261 4.92519 1.10861 4.65546C0.796606 4.46506 0.799806 4.68813 0.799806 4.85986V11.6667C0.799806 12.0587 1.25261 12.6 1.59981 12.6H14.3998C14.747 12.6 15.1998 12.0587 15.1998 11.6667V4.86079C15.1998 4.68906 15.203 4.46599 14.8902 4.65639Z"/>
</g></symbol><symbol id="plane" viewBox="0 0 25 25"><g fill="currentColor">
  <path d="M18.5347 2.1803C17.7301 2.36073 16.9218 2.542 16.6212 3.03873L14.2941 7.41228L1.79919 10.2144L1.29295 11.6118L10.8544 12.4647L9.23212 16.2509L5.60602 17.0641L4.69562 18.5521L7.31158 18.8201L7.60988 20.0371C7.74352 20.4685 8.21259 20.7565 8.61297 20.6667L9.82168 20.3956L11.2228 22.6492L12.1332 21.1611L11.2383 17.5101L13.8637 14.3536L18.8731 22.6468L19.8832 21.5656L16.8005 8.9887L19.6314 4.93144C19.9358 4.43387 19.7373 3.6238 19.5378 2.80994C19.439 2.40681 18.9351 2.09051 18.5347 2.1803Z"/>
</g></symbol><symbol id="points" viewBox="0 0 34 6"><g fill="currentColor">
<ellipse cx="3.93515" cy="3" rx="3.34054" ry="3"/>
<ellipse cx="17.2973" cy="3" rx="3.34054" ry="3"/>
<ellipse cx="30.6595" cy="3" rx="3.34054" ry="3"/>
</g></symbol><symbol id="run" viewBox="0 0 23 25"><g fill="currentColor">
<path d="M16.4545 7C17.4587 7 18.2727 6.10457 18.2727 5C18.2727 3.89543 17.4587 3 16.4545 3C15.4504 3 14.6364 3.89543 14.6364 5C14.6364 6.10457 15.4504 7 16.4545 7Z"/>
<path d="M15.3428 11.969C15.5514 12.311 15.8508 12.5742 16.2001 12.7227C16.5495 12.8712 16.9319 12.8978 17.2955 12.799L20.31 11.97L19.8709 10.03L16.8564 10.859L15.6027 8.79197C15.3349 8.35053 14.9192 8.04354 14.4464 7.93797L10.95 7.16797C10.5589 7.08162 10.1528 7.13933 9.79441 7.33217C9.43606 7.52502 9.14539 7.84229 8.9673 8.23497L7.46002 11.551L9.08639 12.446L10.5937 9.12897L12.3818 9.52297L7.7582 18H3.72729V20H7.7582C8.39275 20 8.99002 19.628 9.3173 19.029L11.0609 15.833L15.76 16.867L17.4109 22.316L19.1346 21.683L17.4846 16.235C17.3827 15.9005 17.2026 15.6014 16.9622 15.3679C16.7219 15.1345 16.4298 14.9748 16.1155 14.905L13.3527 14.298L14.9637 11.344L15.3428 11.969Z"/>
</g></symbol><symbol id="telegram" viewBox="0 0 32 32"><g fill="currentColor">
<path d="M29.2599 3.68657C28.9724 3.44827 28.6258 3.29221 28.2568 3.23494C27.8878 3.17766 27.5102 3.2213 27.1639 3.36124L3.27462 13.0052C2.88858 13.1639 2.55992 13.4362 2.33226 13.786C2.10461 14.1358 1.98874 14.5466 2.00002 14.9638C2.0113 15.381 2.14921 15.7849 2.39544 16.1219C2.64167 16.4589 2.98457 16.713 3.37861 16.8506L8.53328 18.6399L11.3266 27.8746C11.3319 27.8932 11.3493 27.9052 11.3573 27.9226C11.3861 27.9963 11.4281 28.064 11.4813 28.1226C11.5621 28.2128 11.6664 28.2789 11.7826 28.3132C11.7959 28.3186 11.8053 28.3306 11.8186 28.3332H11.8266L11.8306 28.3346C11.9338 28.3568 12.041 28.3513 12.1413 28.3186C12.1519 28.3159 12.1626 28.3159 12.1746 28.3119C12.2709 28.2781 12.3581 28.2224 12.4293 28.1492C12.4373 28.1399 12.4506 28.1386 12.4586 28.1306L16.4759 23.6959L22.3386 28.2359C22.6946 28.5146 23.1333 28.6652 23.5853 28.6652C24.5639 28.6652 25.4079 27.9799 25.6093 27.0239L29.9586 5.66657C30.0324 5.30401 30.0064 4.92821 29.8833 4.57927C29.7603 4.23034 29.5448 3.92134 29.2599 3.68524V3.68657ZM12.7839 20.3932L11.8413 24.9759L9.87461 18.4719L19.6279 13.3919L12.9653 20.0559C12.873 20.1481 12.8099 20.2654 12.7839 20.3932V20.3932ZM24.3026 26.7559C24.2776 26.8768 24.2219 26.9893 24.1409 27.0824C24.0598 27.1756 23.9562 27.2463 23.8399 27.2879C23.7265 27.3316 23.6037 27.3449 23.4835 27.3267C23.3633 27.3085 23.25 27.2593 23.1546 27.1839L16.8039 22.2652C16.6712 22.1628 16.5047 22.1141 16.3376 22.1289C16.1706 22.1437 16.0152 22.221 15.9026 22.3452L13.1066 25.4266L14.0479 20.8572L23.6333 11.2706C23.7455 11.158 23.8138 11.0089 23.8259 10.8504C23.8379 10.6918 23.7928 10.5342 23.6989 10.4059C23.6049 10.2776 23.4681 10.1872 23.3133 10.1509C23.1585 10.1146 22.9958 10.1348 22.8546 10.2079L9.03728 17.4052L3.81462 15.5892C3.67614 15.5435 3.55537 15.4558 3.4691 15.3382C3.38283 15.2206 3.33535 15.0791 3.33328 14.9332C3.32664 14.7861 3.36594 14.6406 3.44574 14.5168C3.52554 14.3931 3.64188 14.2972 3.77862 14.2426L27.6639 4.59857C27.7863 4.54657 27.9208 4.52975 28.0523 4.55001C28.1837 4.57027 28.3069 4.6268 28.4079 4.71324C28.5084 4.79456 28.5843 4.90221 28.6272 5.02417C28.6701 5.14613 28.6782 5.27761 28.6506 5.40391L24.3026 26.7572V26.7559Z"/>
</g></symbol><symbol id="telephone" viewBox="0 0 42 42"><g fill="currentColor">
<path fill-rule="evenodd" clip-rule="evenodd" d="M20.9999 6.17236C15.407 6.17236 9.80065 7.1177 7.76644 9.00191C6.07869 10.5651 5.51608 13.3266 5.32643 15.0751C5.32643 15.0751 5.30029 15.2479 5.30029 15.3222C5.30029 16.0079 5.88889 16.5578 6.60853 16.5578C6.69357 16.5578 9.84004 16.3168 11.737 16.1686C11.7827 16.1623 11.8287 16.1562 11.8743 16.1439C12.5809 16.1255 13.1501 15.5817 13.1501 14.9083L13.1564 12.4741C13.1564 11.7203 13.8043 11.1148 14.6024 11.1148H27.3973C28.1956 11.1148 28.8435 11.7203 28.8435 12.4741L28.8499 14.9083C28.8499 15.5817 29.4191 16.1255 30.1255 16.1439C30.1709 16.1563 30.2169 16.1623 30.2631 16.1686C32.1602 16.3167 35.3066 16.5578 35.3913 16.5578C36.1107 16.5578 36.6997 16.0079 36.6997 15.3222C36.6997 15.2479 36.6736 15.0751 36.6736 15.0751C36.4838 13.3266 35.9218 10.5652 34.234 9.00191C32.1991 7.1177 26.5928 6.17236 20.9999 6.17236ZM20.9999 22.2355C19.5542 22.2355 18.3833 23.3413 18.3833 24.7067C18.3833 26.0721 19.5542 27.1778 20.9999 27.1778C22.4456 27.1778 23.6165 26.0721 23.6165 24.7067C23.6165 23.3413 22.4456 22.2355 20.9999 22.2355ZM19.0375 16.6751V15.1306C19.0375 14.2781 18.3047 13.5861 17.4021 13.5861C16.4995 13.5861 15.7668 14.2782 15.7668 15.1306V16.6751L6.94189 25.5779C6.33378 26.1402 5.95427 26.9245 5.95427 27.7897V30.2671C5.95427 31.6325 7.12528 32.7383 8.57089 32.7383H9.22509V34.2829C9.22509 35.1354 9.9579 35.8273 10.8605 35.8273C11.7631 35.8273 12.4958 35.1354 12.4958 34.2829V32.7383H29.504V34.2829C29.504 35.1354 30.2365 35.8273 31.1394 35.8273C32.042 35.8273 32.7746 35.1354 32.7746 34.2829V32.7383H33.4288C34.8745 32.7383 36.0454 31.6325 36.0454 30.2671V27.7897C36.0454 26.9245 35.6659 26.1401 35.0578 25.5779L26.2332 16.6751V15.1306C26.2332 14.2781 25.5003 13.5861 24.5977 13.5861C23.6951 13.5861 22.9625 14.2782 22.9625 15.1306V16.6751H19.0375ZM20.9999 19.7643C23.8913 19.7643 26.2332 21.976 26.2332 24.7067C26.2332 27.4375 23.8913 29.6494 20.9999 29.6494C18.1085 29.6494 15.7667 27.4375 15.7667 24.7067C15.7667 21.976 18.1085 19.7643 20.9999 19.7643Z"/>
</g></symbol><symbol id="user" viewBox="0 0 21 20"><g fill="none">
<path opacity="0.1" d="M5.6061 4.73916C5.6061 7.35074 7.85224 9.476 10.6124 9.476C13.3725 9.476 15.6186 7.35074 15.6186 4.73916C15.6186 2.12758 13.3725 0.00231934 10.6124 0.00231934C7.85224 0.00231934 5.6061 2.12758 5.6061 4.73916ZM19.5124 20.0023H20.6249V18.9497C20.6249 14.8876 17.1305 11.5813 12.8374 11.5813H8.38735C4.0931 11.5813 0.599854 14.8876 0.599854 18.9497V20.0023H19.5124Z" fill="#192144"/>
</g></symbol><symbol id="vkontakte" viewBox="0 0 32 32"><g fill="currentColor">
<path d="M24.9461 23.7775C24.2083 23.761 23.4891 23.5431 22.8661 23.1475C22.2157 22.7079 21.6184 22.1945 21.0861 21.6175C20.6461 21.1775 19.9161 20.4375 19.6361 20.4375C19.3561 20.4375 19.1561 21.3575 19.1661 22.0075C19.1703 22.4562 19.0021 22.8894 18.6961 23.2175C18.3481 23.5018 17.9234 23.6758 17.4761 23.7175H15.5561C12.7965 23.6568 10.1541 22.59 8.12606 20.7175C4.44606 17.3475 1.28606 10.9075 1.15606 10.6275C1.03206 10.3936 0.980135 10.1282 1.00683 9.86481C1.03353 9.6014 1.13765 9.35181 1.30606 9.14753C1.6872 8.82967 2.16985 8.65933 2.66606 8.66753H6.74606H6.86606C7.20364 8.71678 7.52722 8.836 7.81606 9.01753C8.08788 9.1998 8.30552 9.45198 8.44606 9.74753C8.87724 10.6706 9.37175 11.5627 9.92606 12.4175C11.2361 14.4175 11.8161 14.8775 12.0261 14.9775C12.2597 14.0398 12.324 13.0679 12.2161 12.1075C12.2511 11.6701 12.179 11.2308 12.0061 10.8275C11.7865 10.6519 11.5169 10.5504 11.2361 10.5375L10.5061 9.84753C10.3661 9.18753 11.0961 8.61753 11.6061 8.39753C12.6238 8.07863 13.6916 7.94982 14.7561 8.01753H15.4661C16.1881 7.99873 16.9099 8.06587 17.6161 8.21753C19.3161 8.57753 19.2561 9.94753 19.1861 11.5275C19.1861 11.9875 19.1361 12.5275 19.1361 13.1475C19.1361 13.2975 19.1361 13.4575 19.1361 13.6275C19.0967 14.0629 19.1271 14.5017 19.2261 14.9275C20.0586 14.2311 20.7597 13.3912 21.2961 12.4475C21.875 11.5553 22.3832 10.6191 22.8161 9.64753C22.9479 9.34025 23.1739 9.08272 23.4614 8.91201C23.7489 8.7413 24.0832 8.6662 24.4161 8.69753H28.6961C28.8224 8.68547 28.9497 8.68547 29.0761 8.69753C30.0761 8.69753 30.6661 8.98753 30.9061 9.54753C31.1461 10.1075 31.0761 11.2075 28.5461 14.1575L27.5461 15.2875C27.0616 15.758 26.6443 16.293 26.3061 16.8775C26.6848 17.3081 27.1147 17.6909 27.5861 18.0175C28.7353 18.8835 29.7468 19.9186 30.5861 21.0875C30.7829 21.3148 30.9117 21.593 30.9576 21.8901C31.0036 22.1873 30.965 22.4914 30.8461 22.7675C30.6365 23.0734 30.3561 23.3241 30.0288 23.4982C29.7014 23.6723 29.3368 23.7647 28.9661 23.7675L25.1761 23.8175L24.9461 23.7775ZM19.6361 18.9375C20.5361 18.9375 21.3161 19.7275 22.1461 20.5575C22.5944 21.0471 23.0977 21.4833 23.6461 21.8575C24.0607 22.1333 24.5481 22.2795 25.0461 22.2775H25.1461L28.9461 22.2275C29.1335 22.2168 29.317 22.1692 29.4861 22.0875L29.3861 21.9275C28.6291 20.8959 27.7263 19.9797 26.7061 19.2075C25.5161 18.2075 24.9061 17.7375 24.8361 16.9675C24.7661 16.1975 25.3261 15.5275 26.4461 14.2575L27.4461 13.1475C28.2903 12.2864 28.9834 11.2891 29.4961 10.1975C29.2729 10.1843 29.0492 10.1843 28.8261 10.1975H24.4561C24.377 10.1799 24.2951 10.1799 24.2161 10.1975C23.7532 11.259 23.2012 12.2793 22.5661 13.2475C20.6761 16.0675 19.7861 16.4475 19.1561 16.4475C18.9607 16.4475 18.7684 16.3995 18.5961 16.3075C17.5961 15.7375 17.5961 14.4675 17.6561 13.5475C17.6561 13.3975 17.6561 13.2475 17.6561 13.1175C17.6561 12.4675 17.6561 11.9075 17.7061 11.4275C17.7861 9.74753 17.7061 9.73753 17.3261 9.64753C16.7138 9.52655 16.09 9.4729 15.4661 9.48753H14.7761C14.1411 9.47441 13.5061 9.50784 12.8761 9.58753C12.9715 9.65784 13.0558 9.74212 13.1261 9.83753C13.5385 10.4879 13.7442 11.2479 13.7161 12.0175C13.8461 13.6675 13.7761 15.8175 12.7161 16.3375C12.5284 16.4254 12.3233 16.4698 12.1161 16.4675C11.1861 16.4675 10.2661 15.5875 8.69606 13.2075C8.09358 12.2962 7.5556 11.3439 7.08606 10.3575L7.00606 10.2575C6.90508 10.2061 6.79736 10.169 6.68606 10.1475H2.68606H2.61606C3.20606 11.3675 6.00606 16.7675 9.13606 19.5975C10.8936 21.2122 13.1708 22.1451 15.5561 22.2275H17.4061C17.5004 22.2074 17.5914 22.1737 17.6761 22.1275C17.6761 22.1275 17.6761 22.1275 17.6761 22.0375C17.6761 21.7675 17.6761 19.4375 19.2561 19.0375C19.3784 18.9894 19.5059 18.9558 19.6361 18.9375Z"/>
</g></symbol><symbol id="youtube" viewBox="0 0 32 32"><g fill="currentColor">
<path d="M20.275 15.5873L14.275 11.5873C14.1998 11.5372 14.1124 11.5085 14.0222 11.5041C13.932 11.4997 13.8422 11.5198 13.7625 11.5623C13.6826 11.6039 13.6158 11.6668 13.5694 11.744C13.5231 11.8212 13.4991 11.9098 13.5 11.9998V19.9998C13.4991 20.0899 13.5231 20.1784 13.5694 20.2557C13.6158 20.3329 13.6826 20.3958 13.7625 20.4373C13.8361 20.4754 13.9172 20.4967 14 20.4998C14.0988 20.5016 14.1954 20.4709 14.275 20.4123L20.275 16.4123C20.3447 16.3684 20.4022 16.3075 20.442 16.2354C20.4818 16.1633 20.5027 16.0822 20.5027 15.9998C20.5027 15.9174 20.4818 15.8364 20.442 15.7642C20.4022 15.6921 20.3447 15.6312 20.275 15.5873V15.5873ZM14.5 19.0623V12.9373L19.1 15.9998L14.5 19.0623ZM28.8125 8.84983C28.7092 8.46871 28.5189 8.11677 28.2564 7.82177C27.9939 7.52676 27.6665 7.29674 27.3 7.14983C23.075 5.52483 16.2875 5.54983 16 5.54983C15.7125 5.54983 8.925 5.52483 4.7 7.14983C4.33348 7.29674 4.00609 7.52676 3.74362 7.82177C3.48115 8.11677 3.29078 8.46871 3.1875 8.84983C2.875 10.0623 2.5 12.2873 2.5 15.9998C2.5 19.7123 2.875 21.9373 3.1875 23.1498C3.29078 23.5309 3.48115 23.8829 3.74362 24.1779C4.00609 24.4729 4.33348 24.7029 4.7 24.8498C8.925 26.4748 15.7125 26.4498 16 26.4498H16.0875C16.95 26.4498 23.2875 26.3998 27.3 24.8498C27.6665 24.7029 27.9939 24.4729 28.2564 24.1779C28.5189 23.8829 28.7092 23.5309 28.8125 23.1498C29.125 21.9373 29.5 19.7123 29.5 15.9998C29.5 12.2873 29.125 10.0623 28.8125 8.84983V8.84983ZM27.8375 22.8998C27.7774 23.1274 27.6647 23.3376 27.5083 23.5135C27.352 23.6894 27.1564 23.826 26.9375 23.9123C22.8875 25.4748 16.075 25.4498 16 25.4498C15.925 25.4498 9.1125 25.4748 5.0625 23.9123C4.84358 23.826 4.64804 23.6894 4.49169 23.5135C4.33534 23.3376 4.22257 23.1274 4.1625 22.8998C3.8625 21.7373 3.5 19.5998 3.5 15.9998C3.5 12.3998 3.8625 10.2623 4.1625 9.09983C4.22257 8.87229 4.33534 8.66208 4.49169 8.48619C4.64804 8.3103 4.84358 8.17366 5.0625 8.08733C9.1125 6.52483 15.925 6.54983 16 6.54983C16.075 6.54983 22.8875 6.52483 26.9375 8.08733C27.1564 8.17366 27.352 8.3103 27.5083 8.48619C27.6647 8.66208 27.7774 8.87229 27.8375 9.09983C28.1375 10.2623 28.5 12.3998 28.5 15.9998C28.5 19.5998 28.1375 21.7373 27.8375 22.8998Z"/>
</g></symbol></svg>